<?xml version="1.0" encoding="utf-8"?>
<!-- Generator: Adobe Illustrator 22.1.0, SVG Export Plug-In . SVG Version: 6.00 Build 0)  -->
<svg version="1.1" id="Crop_Marks" xmlns="http://www.w3.org/2000/svg" xmlns:xlink="http://www.w3.org/1999/xlink" x="0px" y="0px"
	 viewBox="0 0 160.3 76" style="enable-background:new 0 0 160.3 76;" xml:space="preserve">
<style type="text/css">
	.st0{opacity:0.7;}
	.st1{fill:none;}
</style>
<g class="st0">
	<path d="M129.6,0.1C129.6,0.1,129.6,0,129.6,0.1L129.6,0.1C129.6,0.1,129.7,0.1,129.6,0.1C129.7,0.1,129.7,0.1,129.6,0.1z"/>
	<path d="M150.2,24.5c0.1,0.3,0.7,1.4,0.8,1.6c0.4,0.7,0.4,0.7,0.4,0.7C151.4,26.6,150.3,24.6,150.2,24.5L150.2,24.5z"/>
	<path d="M152.1,28.1c0.1,0.1,0.2,0.3,0.8,1.6c0.1,0.2,0.2,0.5,0.4,0.7C153.2,30.3,152.3,28.3,152.1,28.1L152.1,28.1z"/>
	<path d="M150.6,25.5c0.1,0.3,0.6,1.2,0.8,1.5c0.2,0.5,0.4,0.7,0.5,0.8C151.9,27.7,150.8,25.6,150.6,25.5L150.6,25.5z"/>
	<path d="M152.5,29.1c0.1,0.3,0.7,1.6,0.7,1.6c0.2,0.5,0.4,0.7,0.4,0.8C153.6,31.3,152.6,29.2,152.5,29.1L152.5,29.1z"/>
	<path d="M153.8,31.7l0.9,2.2c-0.1-0.2-0.1-0.4-0.2-0.5C154.2,32.6,153.9,31.9,153.8,31.7z"/>
	<path d="M154.2,32.8c0.1,0.3,0.6,1.6,0.6,1.7c0.3,0.7,0.3,0.8,0.3,0.8C155.2,35.1,154.3,32.9,154.2,32.8L154.2,32.8z"/>
	<line class="st1" x1="144.5" y1="15.4" x2="145.3" y2="16.5"/>
	<path d="M145.3,16.5c0.1,0.1,0.2,0.2,0.3,0.4L145.3,16.5L145.3,16.5z"/>
	<path d="M144.2,15L144.2,15c0.1,0.2,0.2,0.3,0.3,0.4l-0.2-0.3L144.2,15z"/>
	<path d="M144.9,16C144.9,16,144.9,16.1,144.9,16C144.9,16.1,144.9,16.1,144.9,16L144.9,16z"/>
	<path d="M145.9,17.5c0.2,0.2,0.3,0.4,0.5,0.6c0-0.1-1.2-1.7-1.5-2C145.1,16.3,145.2,16.6,145.9,17.5z"/>
	<path d="M148.1,20.7c0.1,0.2,0.2,0.4,0.3,0.5l-0.8-1.2C147.8,20.3,148,20.5,148.1,20.7z"/>
	<path d="M147.1,19.2L147.1,19.2c0.2,0.2,0.3,0.5,0.4,0.7L147.1,19.2L147.1,19.2z"/>
	<line class="st1" x1="147.7" y1="20" x2="147.6" y2="19.9"/>
	<path d="M145.9,17.8L145.9,17.8c0.2,0.4,1,1.5,1,1.5c0.3,0.4,0.5,0.7,0.6,0.7C147.4,19.9,146.1,18,145.9,17.8L145.9,17.8z"/>
	<path d="M139.3,9.1l0.1,0.1"/>
	<path d="M139.3,9.1L139.3,9.1c0-0.1-0.1-0.2-0.2-0.3L139.3,9.1z"/>
	<path d="M137.8,7.5L137.8,7.5c0.4,0.4,0.8,0.8,1.2,1.2l0.1,0.1l-0.3-0.3C138.1,7.8,137.8,7.5,137.8,7.5z"/>
	<path d="M138.5,8.3L138.5,8.3c0.1,0.2,0.3,0.4,1.1,1.3c0.4,0.4,0.5,0.5,0.5,0.6C140.2,10,138.8,8.5,138.5,8.3z"/>
	<path d="M141.1,11.1c0.1,0.1,0.1,0.2,0.2,0.2C141.2,11.3,141.1,11.2,141.1,11.1L141.1,11.1z"/>
	<path d="M141.4,11.6l0.5,0.6c-0.2-0.3-0.4-0.5-0.7-0.8C141.3,11.4,141.4,11.5,141.4,11.6z"/>
	<path d="M142.2,12.4c0.3,0.4,0.5,0.6,0.5,0.6l-0.7-0.8C142,12.2,142.1,12.3,142.2,12.4z"/>
	<path d="M139.2,9.1L139.2,9.1c0.2,0.3,0.8,1,1.1,1.3c0.5,0.5,0.5,0.6,0.6,0.6C140.8,10.8,139.3,9.2,139.2,9.1z"/>
	<path d="M141.8,12c0.1,0.2,0.3,0.4,1.1,1.3c0.2,0.2,0.3,0.4,0.5,0.6C143.3,13.8,142,12.2,141.8,12L141.8,12z"/>
	<path d="M139.7,9.9L139.7,9.9L139.7,9.9c0.2,0.3,1,1.2,1.1,1.3c0.5,0.5,0.6,0.6,0.6,0.6C141.4,11.7,139.9,10,139.7,9.9z"/>
	<path d="M142.4,12.8L142.4,12.8c0.2,0.3,0.8,1,1.1,1.4c0.4,0.5,0.5,0.6,0.5,0.6l0,0C143.8,14.5,142.5,12.9,142.4,12.8z"/>
	<path d="M140.2,10.6L140.2,10.6L140.2,10.6c0.2,0.3,1.1,1.3,1.1,1.3c0.4,0.4,0.6,0.6,0.6,0.6l0,0C141.8,12.3,140.4,10.8,140.2,10.6
		z"/>
	<path d="M142.9,13.7L142.9,13.7L142.9,13.7c0.2,0.3,1,1.4,1,1.4c0.5,0.6,0.5,0.7,0.6,0.7C144.5,15.6,143.1,13.8,142.9,13.7z"/>
	<path d="M140.5,11.4L140.5,11.4c0.1,0.3,1,1.3,1,1.3l0,0c0.4,0.4,0.6,0.6,0.7,0.7l0,0C142.2,13.1,140.7,11.4,140.5,11.4z"/>
	<path d="M143.3,14.5L143.3,14.5L143.3,14.5c0.1,0.3,1,1.4,1,1.4c0.3,0.4,0.6,0.6,0.6,0.7l0,0C144.8,16.2,143.5,14.6,143.3,14.5z"/>
	<path d="M135.1,6.6L135.1,6.6c0.1,0.2,1.1,1.2,1.1,1.2c0.3,0.3,0.7,0.6,0.9,0.6C137,8.1,135.4,6.7,135.1,6.6z"/>
	<path d="M134.1,3.8c-0.2-0.2-0.3-0.3-0.5-0.5l0.3,0.3c-0.1-0.1-0.1-0.1-0.1-0.1v0.1c0.2,0.2,0.4,0.3,0.6,0.5
		C134.3,4,134.2,3.9,134.1,3.8L134.1,3.8z"/>
	<path d="M135.4,5c-0.1-0.1-0.2-0.2-0.3-0.3c-0.1-0.1-0.1-0.1-0.2-0.2c-0.2-0.2-0.4-0.3-0.6-0.5c0.1,0.1,0.3,0.3,0.5,0.4
		c-0.1,0-0.2,0-0.2-0.1v0.1c0.4,0.4,0.8,0.7,1.1,1.1c0.2,0.2,0.4,0.3,0.5,0.5C136.2,5.8,135.8,5.4,135.4,5L135.4,5L135.4,5z"/>
	<path d="M135.3,5.1L135.3,5.1c0.1,0.1,0.3,0.3,1.2,1.1c0.4,0.4,0.5,0.5,0.5,0.5S135.6,5.3,135.3,5.1z"/>
	<path d="M136,5.9L136,5.9c0.2,0.2,0.9,0.9,1.2,1.2c0.5,0.5,0.5,0.5,0.6,0.5l0,0C137.5,7.3,136.2,6,136,5.9z"/>
	<path d="M137.7,7.8c0.6,0.5,0.6,0.5,0.6,0.6c0-0.1-1.5-1.6-1.8-1.7C136.8,6.9,137.6,7.7,137.7,7.8z"/>
	<path d="M136.6,6.6L136.6,6.6L136.6,6.6L136.6,6.6z"/>
	<path d="M137.1,7.3L137.1,7.3c0.2,0.3,1.1,1.2,1.2,1.2c0.6,0.5,0.6,0.6,0.6,0.6l0,0C138.7,8.8,137.3,7.4,137.1,7.3z"/>
	<path d="M137.4,8L137.4,8c0.2,0.3,1.1,1.2,1.2,1.2c0.4,0.4,0.6,0.6,0.7,0.6l0,0C139.2,9.6,137.6,8,137.4,8z"/>
	<path d="M137.8,8.6c0.1,0.3,1.1,1.2,1.1,1.2c0.3,0.3,0.6,0.6,0.7,0.6C139.7,10.3,138,8.7,137.8,8.6z"/>
	<path d="M131.2,1.4L131.2,1.4c0.1,0.1,0.3,0.3,1.2,1c0.4,0.3,0.5,0.4,0.5,0.4C132.8,2.7,131.4,1.5,131.2,1.4z"/>
	<path d="M131.9,2.1L131.9,2.1c0.2,0.1,0.6,0.5,1.2,1c0.4,0.4,0.5,0.4,0.6,0.4C133.6,3.5,132.2,2.2,131.9,2.1z"/>
	<path d="M132.9,2.7L132.9,2.7c0.2,0.1,0.4,0.4,0.7,0.6l-0.4-0.4C133,2.9,133,2.8,132.9,2.7z"/>
	<path d="M129.6,0.1C129.7,0.1,129.7,0.1,129.6,0.1C129.7,0.1,129.6,0.1,129.6,0.1L129.6,0.1c0.3,0.2,0.6,0.5,0.9,0.8
		c-0.1-0.1-0.2-0.1-0.2-0.1l0,0c0.4,0.3,0.8,0.6,1.2,0.9c0.2,0.1,0.3,0.3,0.5,0.4c-0.1-0.1-0.6-0.5-1-0.8c-0.3-0.3-0.7-0.5-1-0.8
		c-0.1-0.1-0.2-0.1-0.3-0.2C129.7,0.1,129.6,0.1,129.6,0.1L129.6,0.1C129.6,0,129.6,0.1,129.6,0.1z"/>
	<path d="M132.5,2.8L132.5,2.8c0.2,0.2,1,0.8,1.2,1c0.6,0.5,0.6,0.5,0.6,0.5C134.3,4.2,132.7,2.8,132.5,2.8z"/>
	<path d="M133.1,3.4L133.1,3.4c0.2,0.2,1.1,1,1.2,1.1C134.9,5,134.9,5,135,5C135,4.9,133.4,3.5,133.1,3.4z"/>
	<path d="M133.6,4.1L133.6,4.1c0.2,0.3,1.1,1.1,1.2,1.1c0.6,0.5,0.7,0.5,0.7,0.5C135.5,5.5,133.9,4.2,133.6,4.1z"/>
	<path d="M134.1,4.7L134.1,4.7c0.1,0.3,1.2,1.1,1.2,1.1c0.6,0.5,0.7,0.5,0.7,0.5l0,0C135.9,6.1,134.2,4.7,134.1,4.7z"/>
	<path d="M134.4,5.3L134.4,5.3c0.1,0.2,1.2,1.1,1.2,1.1c0.3,0.3,0.7,0.6,0.8,0.6C136.3,6.9,134.6,5.3,134.4,5.3z"/>
	<path d="M134.7,5.9c0.1,0.2,1.2,1.2,1.2,1.2c0.3,0.2,0.7,0.6,0.8,0.6C136.7,7.5,134.9,5.9,134.7,5.9z"/>
	<path d="M142.8,16.3c0.1-0.2-1.5-2.2-1.7-2.1l0,0c0,0.2,0.7,1,0.9,1.3C142.2,15.7,142.7,16.3,142.8,16.3z"/>
	<path d="M141.8,16c0.5,0.6,0.9,0.9,0.9,0.8c0-0.2-1.6-2.3-1.8-2.1C140.9,14.8,141.5,15.6,141.8,16z"/>
	<path d="M141.6,16.5c0.5,0.6,0.9,0.9,0.9,0.8c0-0.2-1.5-2.3-1.7-2.2C140.7,15.4,141.2,16.1,141.6,16.5z"/>
	<path d="M141.1,17c0.5,0.6,0.9,1,0.9,0.8s-1.4-2.3-1.7-2.2C140.3,15.8,140.8,16.5,141.1,17z"/>
	<path d="M139.9,16c-0.1,0.2,0.4,0.9,0.8,1.4c0.5,0.7,0.9,1,0.9,0.8C141.6,17.9,140.2,15.9,139.9,16z"/>
	<path d="M139.3,16.4c-0.1,0.1,0.4,0.9,0.7,1.4c0.5,0.7,0.9,1,1,0.9C141,18.3,139.7,16.3,139.3,16.4z"/>
	<path d="M138.7,16.7c-0.2,0.1,0.3,0.9,0.7,1.3c0.5,0.7,0.9,1.1,1,0.9C140.4,18.7,139.1,16.7,138.7,16.7z"/>
	<path d="M137.9,17c-0.2,0.1,0.3,0.8,0.6,1.3c0.5,0.8,1,1.2,1,0.9C139.5,18.8,138.3,17,137.9,17z"/>
	<path d="M138.6,19.5c0.1-0.4-1.1-2.2-1.6-2.2c-0.2,0.1,0.2,0.8,0.5,1.3C138,19.3,138.5,19.7,138.6,19.5z"/>
	<path d="M140.2,13.1c0.1-0.2-1.6-2.1-1.9-2l0,0c0,0.2,0.7,1,1,1.3C139.5,12.6,140.1,13.1,140.2,13.1z"/>
	<path d="M139.1,12.9c0.5,0.6,0.9,0.9,0.9,0.8c0-0.2-1.7-2.2-1.9-2C138.2,11.8,138.9,12.6,139.1,12.9z"/>
	<path d="M138.9,13.3c0.5,0.6,0.9,0.9,0.9,0.8c0-0.2-1.6-2.2-1.8-2.1C137.9,12.2,138.5,12.9,138.9,13.3z"/>
	<path d="M138.5,13.7c0.5,0.6,0.9,0.9,1,0.8c0-0.2-1.5-2.3-1.8-2.1C137.6,12.6,138.1,13.3,138.5,13.7z"/>
	<path d="M138.1,14.1c0.5,0.6,0.9,0.9,1,0.8c0.1-0.2-1.5-2.2-1.8-2.1C137.1,13,137.7,13.7,138.1,14.1z"/>
	<path d="M136.7,13.2c-0.1,0.1,0.4,0.9,0.8,1.3c0.5,0.6,1,1.1,1,0.9C138.5,14.9,137,13.1,136.7,13.2z"/>
	<path d="M136.1,13.4c-0.1,0.1,0.4,0.8,0.8,1.3c0.5,0.6,0.9,1,1,0.9C137.9,15.2,136.4,13.4,136.1,13.4z"/>
	<path d="M135.4,13.7c-0.2,0.1,0.3,0.8,0.7,1.3c0.5,0.7,1,1,1,0.9C137.3,15.5,135.8,13.7,135.4,13.7z"/>
	<path d="M135.2,8L135.2,8c0,0.1,0.8,0.9,1.1,1.2c0.2,0.2,0.8,0.7,0.9,0.7C137.3,9.8,135.4,8,135.2,8z"/>
	<path d="M136.1,9.7c0.1,0.1,0.8,0.8,0.9,0.7c0-0.3-1.9-2.1-2-2C135,8.6,135.8,9.4,136.1,9.7z"/>
	<path d="M141.1,12.9L141.1,12.9c0.1,0.2,0.7,1.1,1,1.3c0.2,0.2,0.6,0.7,0.8,0.7C142.9,14.8,141.2,13,141.1,12.9z"/>
	<path d="M141.1,13.5L141.1,13.5c0,0.2,0.7,1,1,1.4c0.2,0.3,0.7,0.8,0.8,0.7C142.9,15.4,141.3,13.5,141.1,13.5z"/>
	<path d="M138.3,10L138.3,10c0,0.2,0.8,1,1.1,1.3c0.2,0.2,0.7,0.7,0.8,0.7l0,0C140.1,11.6,138.6,10.1,138.3,10z"/>
	<path d="M138.3,10.6L138.3,10.6c0,0.2,0.8,1,1.1,1.3c0.2,0.2,0.7,0.8,0.8,0.8C140.3,12.4,138.5,10.5,138.3,10.6z"/>
	<path d="M147.2,22.4c0.1,0.2,0.6,0.9,0.7,0.8c0.1-0.2-1.3-2.4-1.5-2.3C146.4,21.2,146.9,22,147.2,22.4z"/>
	<path d="M146.3,21.6L146.3,21.6c0,0.3,0.4,1,0.8,1.5c0.4,0.6,0.7,0.9,0.7,0.9C147.9,23.7,146.5,21.5,146.3,21.6z"/>
	<path d="M146,22.2L146,22.2c-0.1,0.2,0.4,1,0.7,1.5c0.4,0.7,0.8,1,0.8,0.9C147.5,24.2,146.2,22.1,146,22.2z"/>
	<path d="M145.7,19.9c0.1-0.2-1.4-2.3-1.6-2.2l0,0c0,0.2,0.5,0.9,0.9,1.4C145,19.3,145.5,20,145.7,19.9z"/>
	<path d="M143.9,18.3c0,0.2,0.5,1,0.8,1.4c0.4,0.6,0.8,0.9,0.8,0.8C145.6,20.3,144.1,18.2,143.9,18.3L143.9,18.3z"/>
	<path d="M143.6,18.9c-0.1,0.2,0.5,1,0.8,1.4c0.5,0.6,0.8,1,0.8,0.8C145.3,20.8,143.9,18.8,143.6,18.9L143.6,18.9z"/>
	<path d="M146.4,19.5L146.4,19.5c0,0.2,0.6,1,0.9,1.5c0.2,0.2,0.5,0.7,0.6,0.8C148,21.7,146.7,19.6,146.4,19.5z"/>
	<path d="M146.5,20.3L146.5,20.3c0,0.2,0.5,1,0.8,1.5c0.2,0.2,0.5,0.8,0.6,0.8l0,0C148,22.3,146.7,20.2,146.5,20.3z"/>
	<path d="M144,16.4L144,16.4c0.1,0.2,0.7,1.1,0.9,1.4s0.6,0.7,0.7,0.7C145.7,18.3,144.2,16.4,144,16.4z"/>
	<path d="M140.9,12.2L140.9,12.2c0.1,0.3,0.8,1.1,1,1.3c0.2,0.3,0.6,0.7,0.7,0.7C142.7,14.1,141.1,12.2,140.9,12.2z"/>
	<path d="M143.9,15.6L143.9,15.6c0.1,0.2,0.7,1.1,1,1.4c0.2,0.2,0.6,0.7,0.7,0.7C145.5,17.5,144,15.6,143.9,15.6z"/>
	<path d="M144.1,17.1L144.1,17.1c0,0.2,0.6,1,0.9,1.4c0.2,0.2,0.7,0.8,0.8,0.8C145.8,19,144.3,17,144.1,17.1z"/>
	<path d="M150.9,28.2L150.9,28.2c0,0.3,0.4,1.1,0.7,1.6c0.3,0.6,0.6,0.9,0.6,0.8C152.2,30.3,151,28,150.9,28.2z"/>
	<path d="M150.7,29L150.7,29c-0.1,0.3,0.3,1.1,0.6,1.6c0.3,0.6,0.6,1,0.6,0.9C152.1,31.1,150.9,28.8,150.7,29z"/>
	<path d="M150.4,29.7c-0.1,0.2,0.3,1.1,0.5,1.6c0.4,0.7,0.7,1,0.7,0.9C151.7,31.7,150.6,29.6,150.4,29.7z"/>
	<path d="M152.3,33.7L152.3,33.7c-0.1,0.2,0.2,1.1,0.4,1.6c0.3,0.7,0.6,1.1,0.7,0.9C153.5,35.7,152.6,33.6,152.3,33.7z"/>
	<path d="M148.9,24.7c0,0.2,0.5,1,0.7,1.5c0.4,0.6,0.6,0.9,0.7,0.8C150.3,26.8,149.1,24.6,148.9,24.7L148.9,24.7z"/>
	<path d="M148.7,25.4c0,0.2,0.4,1,0.7,1.6c0.3,0.6,0.6,0.9,0.7,0.8C150.2,27.5,148.9,25.3,148.7,25.4z"/>
	<path d="M148.4,26.1L148.4,26.1c-0.1,0.2,0.3,1,0.6,1.5c0.4,0.7,0.7,1,0.8,0.8C149.8,28.1,148.6,26,148.4,26.1z"/>
	<path d="M149,24L149,24c0,0.3,0.5,1.1,0.7,1.5c0.2,0.2,0.5,0.8,0.6,0.8C150.5,26.2,149.2,24,149,24z"/>
	<path d="M135.2,7.1L135.2,7.1c0.1,0.2,0.8,0.9,1.1,1.2c0.2,0.2,0.7,0.6,0.8,0.7l0,0C137.1,8.6,135.3,7,135.2,7.1z"/>
	<path d="M135.2,7.6L135.2,7.6c0,0.2,0.8,0.9,1.1,1.2c0.2,0.2,0.8,0.7,0.9,0.7C137.2,9.2,135.3,7.6,135.2,7.6z"/>
	<path d="M135.9,10.1c0.1,0.1,0.8,0.9,1,0.8c0.1-0.2-1.8-2.1-2-2C134.8,9,135.6,9.8,135.9,10.1z"/>
	<path d="M135.5,10.4c0.2,0.2,0.9,0.9,1,0.8c0.1-0.2-1.7-2.1-2-2C134.5,9.3,135.1,10,135.5,10.4z"/>
	<path d="M135.1,10.8c0.6,0.6,1,0.9,1,0.8c0.1-0.2-1.6-2.2-1.9-2C134.2,9.7,134.7,10.3,135.1,10.8z"/>
	<path d="M134.6,11.1c0.6,0.6,1.1,1,1,0.8c0-0.4-1.6-2.1-1.9-2.1C133.7,9.9,134.3,10.6,134.6,11.1z"/>
	<path d="M133.2,10.1c-0.1,0.1,0.5,0.8,0.8,1.2c0.5,0.6,1,1,1,0.9C135.1,11.8,133.6,10,133.2,10.1z"/>
	<path d="M134.5,12.4c0-0.3-1.5-2.1-1.8-2.1c-0.1,0.1,0.4,0.8,0.8,1.2C134,12.2,134.4,12.6,134.5,12.4z"/>
	<path d="M129.7,0.7c0.2,0.2,1.1,0.8,1.2,0.9c0.6,0.4,0.7,0.4,0.7,0.4l0,0C131.4,1.9,129.9,0.8,129.7,0.7L129.7,0.7z"/>
	<path d="M131.4,2.3c0.6,0.4,0.7,0.5,0.7,0.5c0-0.2-1.7-1.4-2-1.5C130.4,1.5,131.3,2.2,131.4,2.3z"/>
	<path d="M130.6,1.8c0.2,0.2,1.2,1,1.2,1c0.7,0.5,0.8,0.5,0.8,0.5l0,0C132.5,3.1,130.8,1.8,130.6,1.8L130.6,1.8z"/>
	<path d="M131,2.4c0.1,0.2,1.2,1,1.2,1c0.5,0.4,0.7,0.5,0.8,0.5C133,3.8,131.2,2.4,131,2.4z"/>
	<path d="M131.3,2.9L131.3,2.9c0.1,0.2,1.2,1,1.2,1.1c0.5,0.3,0.8,0.5,0.8,0.6C133.4,4.3,131.6,2.9,131.3,2.9z"/>
	<path d="M131.5,3.4L131.5,3.4c0.1,0.2,1.2,1,1.2,1.1c0.5,0.4,0.8,0.5,0.9,0.6C133.5,4.7,131.8,3.4,131.5,3.4z"/>
	<path d="M131.7,3.8L131.7,3.8c0.1,0.2,1.2,1.1,1.2,1.1l0,0c0.3,0.3,0.8,0.6,0.9,0.6l0,0C133.7,5.3,132,3.9,131.7,3.8z"/>
	<path d="M128.4,0.2c0.8,0.5,0.8,0.5,0.8,0.5C129.2,0.6,128.8,0.4,128.4,0.2l-0.2-0.1C128.3,0.1,128.4,0.2,128.4,0.2z"/>
	<path d="M128.8,0.7c0.7,0.5,0.8,0.5,0.8,0.5c0-0.1-1-0.8-1.6-1.1h-0.2C128.2,0.3,128.7,0.6,128.8,0.7z"/>
	<path d="M127.8,0.2c0.1,0.1,1.2,0.8,1.3,0.9c0.5,0.3,0.8,0.5,0.8,0.5C130,1.5,128,0.2,127.8,0.2L127.8,0.2z"/>
	<path d="M128.1,0.6L128.1,0.6c0.1,0.2,1.2,0.9,1.3,1c0.5,0.4,0.8,0.5,0.9,0.6l0,0C130.1,1.9,128.4,0.7,128.1,0.6z"/>
	<path d="M128.3,1c0.1,0.2,1.2,0.9,1.3,1c0.5,0.4,0.8,0.6,0.9,0.6C130.3,2.3,128.6,1.1,128.3,1z"/>
	<path d="M129.6,0.1c0,0,0-0.1-0.1-0.1h-0.1C129.5,0.1,129.6,0.1,129.6,0.1z"/>
	<path d="M126.9,0.2L126.9,0.2c0-0.1-0.1-0.1-0.1-0.2h-0.2C126.9,0.2,126.9,0.2,126.9,0.2z"/>
	<path d="M134.1,7.1c0-0.2-1.9-1.9-2.1-1.9l0,0c0,0.1,0.8,0.9,1.1,1.2C133.4,6.6,134,7.1,134.1,7.1z"/>
	<path d="M131.8,5.6c0,0.2,0.8,0.9,1.1,1.2c0.3,0.2,0.8,0.8,1,0.8c0.1-0.1-0.8-0.9-0.9-1C132.5,6,132,5.6,131.8,5.6L131.8,5.6z"/>
	<path d="M132.8,7.1c0.2,0.2,0.9,0.8,1,0.7c0-0.2-1.9-2-2.1-1.9C131.7,6.1,132.5,6.8,132.8,7.1z"/>
	<path d="M132.5,7.4c0.2,0.2,0.9,0.9,1,0.8c0.1-0.2-1.9-2-2.1-2C131.4,6.4,132.1,7,132.5,7.4z"/>
	<path d="M132.2,7.7c0.1,0.1,0.9,0.9,1,0.8c0.1-0.2-1.8-2-2-2C131.1,6.6,131.7,7.3,132.2,7.7z"/>
	<path d="M131.7,7.9c0.1,0.2,0.9,0.8,1,0.8c0.1-0.2-1.7-2-2-2C130.7,6.9,131.3,7.6,131.7,7.9z"/>
	<path d="M131.3,8.2c0.6,0.6,1.1,1,1,0.8c0-0.3-1.7-2-2-2C130.3,7.1,130.8,7.8,131.3,8.2z"/>
	<path d="M131.7,9.2c0-0.3-1.6-2-1.9-2c-0.1,0.1,0.5,0.8,0.9,1.2C131.3,9,131.7,9.4,131.7,9.2z"/>
	<path d="M130,8.5c0.6,0.6,1,1,1.1,0.9c0.1-0.3-1.6-2-1.9-2C129.1,7.4,129.6,8.1,130,8.5z"/>
	<path d="M129.9,3.7c0.3,0.2,0.9,0.6,1,0.7c0-0.2-2-1.7-2.2-1.7l0,0C128.7,2.8,129.9,3.7,129.9,3.7z"/>
	<path d="M130.8,4.7c-0.2-0.3-2.1-1.8-2.2-1.8c0,0.1,1.2,1.1,1.2,1.1C130.1,4.3,130.7,4.7,130.8,4.7L130.8,4.7z"/>
	<path d="M129.6,4.3c0.3,0.2,0.9,0.7,1,0.7l0,0c-0.1-0.3-2-1.9-2.2-1.8C128.5,3.4,129.4,4.2,129.6,4.3z"/>
	<path d="M129.4,4.6c0.2,0.2,0.9,0.8,1,0.7c0-0.2-2-1.9-2.2-1.9C128.3,3.7,129.3,4.5,129.4,4.6z"/>
	<path d="M129.1,4.8c0.2,0.2,0.9,0.8,1.1,0.8c0.1-0.2-1.9-1.9-2.2-1.9C128,3.9,129,4.7,129.1,4.8z"/>
	<path d="M128.7,5c0.1,0.2,0.9,0.8,1.1,0.8c0.1-0.2-1.8-1.9-2.1-1.9C127.7,4.1,128.6,4.9,128.7,5z"/>
	<path d="M128.3,5.2c0.2,0.1,0.9,0.9,1.1,0.8c0.1-0.1-1.8-1.9-2.1-1.9C127.3,4.3,128.2,5.1,128.3,5.2z"/>
	<path d="M127.8,5.4c0.6,0.6,1.1,0.9,1.1,0.8c0-0.3-1.8-1.9-2-1.9C126.9,4.4,127.8,5.3,127.8,5.4z"/>
	<path d="M126.3,1c0.4,0.3,0.9,0.7,1.1,0.7l0,0c-0.2-0.3-1.8-1.4-2.2-1.6h-0.1C125.2,0.2,126,0.8,126.3,1z"/>
	<path d="M124.9,0.3c0.1,0.1,1,0.8,1.3,1c0.4,0.3,0.9,0.7,1.1,0.7l0,0C127.1,1.6,125.1,0.2,124.9,0.3z"/>
	<path d="M132,4.4c0.1,0.2,1.2,1.1,1.2,1.1c0.3,0.2,0.8,0.7,0.9,0.7C134,5.9,132.1,4.4,132,4.4z"/>
	<path d="M132,4.8L132,4.8c0,0.1,0.9,0.9,1.2,1.1c0.3,0.3,0.8,0.7,0.9,0.7C134.1,6.4,132.2,4.8,132,4.8z"/>
	<path d="M157.2,43.4L157.2,43.4c0,0.3,0.2,1.3,0.3,1.8c0.1,0.2,0.3,0.9,0.4,0.9C158,45.9,157.4,43.4,157.2,43.4z"/>
	<path d="M157,44.3L157,44.3c-0.1,0.3,0.1,1.3,0.3,1.8c0.2,0.6,0.4,1,0.4,0.9C157.8,46.9,157.2,44.3,157,44.3z"/>
	<path d="M156.8,42.2c0.1-0.1-0.6-2.6-0.8-2.6l0,0c0,0.3,0.2,1.2,0.4,1.7C156.4,41.5,156.7,42.2,156.8,42.2z"/>
	<path d="M155.8,40.5L155.8,40.5c-0.1,0.3,0.2,1.2,0.3,1.7c0.2,0.6,0.4,1,0.5,0.9C156.7,42.8,156,40.5,155.8,40.5z"/>
	<path d="M155.4,38.2c0.2-0.1-0.7-2.5-1-2.5l0,0c0,0.2,0.3,1.2,0.5,1.7C155.1,37.6,155.3,38.2,155.4,38.2z"/>
	<path d="M154.2,36.5L154.2,36.5c-0.1,0.3,0.2,1.2,0.4,1.7c0.3,0.6,0.5,1,0.5,0.9C155.3,38.7,154.4,36.4,154.2,36.5z"/>
	<path d="M157.2,42.5c0,0.3,0.3,1.2,0.4,1.7c0.1,0.3,0.2,0.8,0.3,0.8C158.1,44.9,157.4,42.5,157.2,42.5L157.2,42.5z"/>
	<path d="M156,38.7L156,38.7c0,0.3,0.3,1.2,0.5,1.7c0.1,0.3,0.3,0.8,0.4,0.9l0,0C156.9,40.9,156.2,38.8,156,38.7L156,38.7z"/>
	<path d="M159.1,51.7L159.1,51.7c0,0.4,0.1,1.3,0.2,1.8c0,0.3,0.1,0.8,0.2,0.9C159.7,54.3,159.3,51.8,159.1,51.7z"/>
	<path d="M158.9,52.7L158.9,52.7c-0.1,0.3,0,1.3,0.1,1.8c0,0.2,0.2,0.9,0.3,0.9C159.4,55.3,159.1,52.8,158.9,52.7z"/>
	<path d="M158.3,47.8L158.3,47.8c-0.1,0.4,0.1,1.3,0.2,1.8c0.1,0.2,0.2,0.9,0.3,0.9C159,50.4,158.5,47.8,158.3,47.8z"/>
	<path d="M158.1,48.8c-0.1,0.3,0.1,1.2,0.2,1.7c0,0.2,0.2,0.9,0.3,0.9C158.8,51.3,158.3,48.9,158.1,48.8L158.1,48.8z"/>
	<path d="M159.2,50.7c0,0.3,0.1,1.3,0.2,1.8c0,0.3,0.1,0.8,0.2,0.9C159.7,53.2,159.3,50.8,159.2,50.7L159.2,50.7z"/>
	<path d="M158.4,46.8c0,0.3,0.2,1.3,0.3,1.8c0.1,0.3,0.2,0.8,0.2,0.9C159,49.3,158.5,46.9,158.4,46.8L158.4,46.8z"/>
	<path d="M160.1,60.1c0,0.3,0,1.3,0,1.9c0,0.3,0.1,0.8,0.1,0.9C160.3,62.7,160.2,60.2,160.1,60.1L160.1,60.1z"/>
	<path d="M160.3,61.4l-0.1-2.2c0-0.1,0-0.2,0-0.3l0,0c0,0.4,0,1.5,0,1.9c0,0.3,0,0.6,0.1,0.9V61.4z"/>
	<path d="M159.9,63.9c0.1-0.2,0.1-2.8,0-2.8l0,0c-0.1,0.3-0.1,1.3-0.1,1.8C159.7,63.2,159.8,63.9,159.9,63.9z"/>
	<path d="M159.7,56.1c-0.1,0.3,0,1.3,0.1,1.8c0,0.3,0.1,0.8,0.1,0.9C160.1,58.7,159.9,56.2,159.7,56.1L159.7,56.1z"/>
	<path d="M159.5,57.1L159.5,57.1c-0.1,0.3-0.1,1.3,0,1.8c0,0.2,0.1,0.9,0.2,0.9C159.9,59.7,159.7,57.2,159.5,57.1z"/>
	<path d="M159.8,55c0,0.4,0.1,1.4,0.1,1.8c0.1,0.5,0.1,0.8,0.1,0.9C160.1,57.7,159.9,55.2,159.8,55L159.8,55z"/>
	<path d="M159.9,70.4c0,0.3-0.1,0.8-0.1,0.9c0.1-0.2,0.2-2.6,0.2-2.8l0,0C160,68.9,159.9,69.8,159.9,70.4z"/>
	<path d="M159.3,75.8c0-0.2,0.1-0.5,0.1-0.7L159.3,75.8L159.3,75.8z"/>
	<path d="M159.5,74.4l0.2-1.1c0,0,0-0.1,0-0.2v0.1C159.6,73.3,159.5,73.9,159.5,74.4z"/>
	<path d="M159.4,75c0-0.2,0.1-0.4,0.1-0.6l-0.1,0.8C159.4,75.1,159.4,75,159.4,75z"/>
	<path d="M159.8,69.6c-0.1,0.3-0.2,1.3-0.2,1.9c0,0.3,0,0.8,0,0.9C159.7,72.3,159.9,69.7,159.8,69.6L159.8,69.6z"/>
	<path d="M160.2,64.4L160.2,64.4c-0.1,0.4-0.1,1.4-0.1,1.9c0,0.8,0,0.9,0,0.9C160.2,67.1,160.3,64.5,160.2,64.4z"/>
	<path d="M159.9,65.5L159.9,65.5c-0.1,0.4-0.2,1.3-0.2,1.9c0,0.3,0,0.8,0.1,0.9C160,68.2,160,65.7,159.9,65.5z"/>
	<path d="M160.3,65.2c0-0.6,0-1.4,0-1.8l-0.1,2.5C160.2,65.6,160.2,65.4,160.3,65.2z"/>
	<path d="M154.5,34.8c0,0.3,0.3,1.2,0.5,1.7c0.1,0.3,0.4,0.9,0.4,0.9C155.6,37.1,154.7,34.8,154.5,34.8L154.5,34.8z"/>
	<path d="M152.8,32c0,0.2,0.4,1.1,0.6,1.6c0.1,0.2,0.4,0.8,0.5,0.9C154.1,34.3,153.1,32,152.8,32L152.8,32z"/>
	<path d="M152.6,32.8L152.6,32.8c-0.1,0.2,0.3,1.1,0.5,1.6c0.3,0.6,0.6,1,0.6,0.9C153.8,34.9,152.8,32.6,152.6,32.8z"/>
	<path d="M152.9,31.1c0,0.2,0.4,1.1,0.6,1.6c0.1,0.2,0.4,0.8,0.5,0.8C154.1,33.4,153.1,31.1,152.9,31.1L152.9,31.1z"/>
	<path d="M128.7,1.9c0.1,0.1,1.3,1,1.3,1c0.3,0.2,0.9,0.6,1,0.6C130.8,3.3,128.8,1.9,128.7,1.9z"/>
	<path d="M128.7,2.3c0.1,0.2,1.2,1.1,1.2,1.1c0.3,0.2,0.9,0.7,1,0.7C130.9,3.7,128.9,2.3,128.7,2.3L128.7,2.3z"/>
	<path d="M126.3,0.4c0.4,0.3,0.9,0.6,1,0.6c0-0.1-0.7-0.6-1.3-1h-0.2C126,0.2,126.3,0.4,126.3,0.4z"/>
	<path d="M159,49.2c0.1,0.6,0.2,1.2,0.3,1.8c0.1,0.3,0.1,0.6,0.1,0.8L159,49.2L159,49.2z"/>
	<path d="M158.2,45.3c0.1,0.4,0.3,1.6,0.4,1.8c0.2,0.7,0.2,0.8,0.2,0.9C158.8,47.9,158.3,45.5,158.2,45.3L158.2,45.3z"/>
	<path d="M157.1,41.3c0.1,0.3,0.3,1.4,0.5,1.7c0.2,0.5,0.2,0.8,0.3,0.8C157.9,43.8,157.2,41.4,157.1,41.3L157.1,41.3z"/>
	<path d="M155.9,37.6c0.1,0.3,0.4,1.4,0.5,1.7s0.3,0.8,0.3,0.8C156.8,40,156.1,37.7,155.9,37.6L155.9,37.6z"/>
	<path d="M154.5,33.9c0.1,0.3,0.5,1.3,0.6,1.7c0.2,0.3,0.3,0.7,0.4,0.8C155.5,36.3,154.6,34,154.5,33.9L154.5,33.9z"/>
	<path d="M152.7,30.1L152.7,30.1c0.1,0.3,0.5,1.3,0.7,1.6s0.4,0.8,0.4,0.8l0,0C153.9,32.2,153,30.3,152.7,30.1L152.7,30.1z"/>
	<path d="M126.3,0.7c0.4,0.3,1,0.6,1.1,0.6c0-0.1-1.1-0.9-1.8-1.3h-0.2C125.7,0.3,126.3,0.7,126.3,0.7z"/>
	<path d="M126.1,1.5c0.3,0.3,0.9,0.7,1.1,0.7l0,0c-0.2-0.3-2.2-1.7-2.3-1.7C124.9,0.6,125.8,1.3,126.1,1.5z"/>
	<path d="M125.9,1.7c0.3,0.2,0.9,0.7,1.1,0.7c-0.1-0.3-2.1-1.8-2.3-1.7C124.7,0.8,125.7,1.6,125.9,1.7z"/>
	<path d="M125.6,1.9c0.3,0.2,1,0.7,1.1,0.7c-0.1-0.3-2.1-1.8-2.3-1.8C124.5,1,125.4,1.8,125.6,1.9z"/>
	<path d="M125.3,2.1c0.2,0.2,1,0.8,1.1,0.8c0-0.3-2.1-1.8-2.2-1.8C124.2,1.2,125.1,1.9,125.3,2.1z"/>
	<path d="M125,2.2c0.2,0.2,1,0.8,1.1,0.8c0-0.3-2-1.9-2.2-1.9C123.9,1.3,124.9,2.1,125,2.2z"/>
	<path d="M124.6,2.4c0.2,0.2,0.9,0.8,1.1,0.8c0.1-0.2-1.9-1.9-2.1-1.9C123.5,1.5,124.5,2.3,124.6,2.4z"/>
	<path d="M122.1,0.1L122.1,0.1L122,0C122,0.1,122.1,0.1,122.1,0.1z"/>
	<path d="M129.9,2.6c0.3,0.3,0.8,0.6,0.9,0.6c-0.1-0.2-2-1.6-2.2-1.6C128.7,1.7,129.8,2.6,129.9,2.6z"/>
	<path d="M126.2,0.1c0.4,0.3,0.9,0.6,1,0.6c0-0.1-0.4-0.3-0.9-0.6L126.2,0.1L126.2,0.1z"/>
	<path d="M135.2,19.8c0.1-0.4-0.9-2.2-1.4-2.2c-0.3,0.1,0,0.8,0.3,1.3C134.6,19.7,135.2,20.1,135.2,19.8z"/>
	<path d="M133.9,19.8c0.2-0.4-0.8-2.2-1.3-2.2c-0.3,0.1,0,0.8,0.2,1.3C133.3,19.6,133.8,20.1,133.9,19.8z"/>
	<path d="M132.6,19.7c0.1-0.5-0.7-2.1-1.3-2.2c-0.3,0-0.1,0.7,0.2,1.2C131.9,19.6,132.5,20.1,132.6,19.7z"/>
	<path d="M131.1,19.6c0.2-0.5-0.6-2.1-1.2-2.2c-0.3,0-0.1,0.8,0.1,1.3C130.4,19.5,131,20,131.1,19.6z"/>
	<path d="M129.6,19.4c0.2-0.5-0.5-2.1-1.1-2.2c-0.4,0-0.2,0.7,0,1.2C128.9,19.3,129.4,19.8,129.6,19.4z"/>
	<path d="M128,19.2c0.2-0.4-0.4-2.1-1-2.2c-0.3,0-0.2,0.7-0.1,1.2C127.3,19,127.8,19.6,128,19.2z"/>
	<path d="M126.4,18.9c0.2-0.5-0.4-2-1-2.1c-0.4,0-0.3,0.7-0.1,1.2C125.6,18.8,126.2,19.3,126.4,18.9z"/>
	<path d="M124.8,18.6c0.2-0.5-0.3-2-0.9-2.1c-0.4-0.1-0.3,0.6-0.2,1.1C123.9,18.4,124.5,19,124.8,18.6z"/>
	<path d="M123,18.2c0.3-0.5-0.2-1.9-0.8-2.1c-0.4-0.1-0.4,0.6-0.3,1.1C122.2,18,122.8,18.6,123,18.2z"/>
	<path d="M131.8,14.2c-0.2,0,0.1,0.8,0.4,1.2c0.5,0.8,1,1.2,1.1,0.9C133.4,15.9,132.3,14.2,131.8,14.2z"/>
	<path d="M132.1,16.3c0.1-0.4-0.9-2.1-1.4-2.1c-0.3,0,0.1,0.8,0.3,1.2C131.5,16.2,132,16.6,132.1,16.3z"/>
	<path d="M130.9,16.3c0.1-0.4-0.8-2.1-1.3-2.2c-0.3,0,0,0.7,0.2,1.2C130.2,16.1,130.7,16.6,130.9,16.3z"/>
	<path d="M129.5,16.2c0.1-0.5-0.8-2.1-1.3-2.1c-0.3,0,0,0.7,0.2,1.2C128.9,16,129.4,16.5,129.5,16.2z"/>
	<path d="M128.2,16c0.1-0.4-0.6-2-1.2-2.1c-0.3,0-0.1,0.7,0.2,1.2C127.5,15.9,128,16.3,128.2,16z"/>
	<path d="M125.6,13.7c-0.3,0-0.1,0.7,0.1,1.1c0.4,0.8,0.9,1.3,1,1C126.9,15.4,126.2,13.8,125.6,13.7z"/>
	<path d="M124.3,13.5c-0.3,0-0.2,0.6,0,1.1c0.3,0.8,0.8,1.3,1,1C125.5,15.2,124.8,13.6,124.3,13.5z"/>
	<path d="M123.8,15.2c0.2-0.5-0.4-1.9-0.9-2.1c-0.3,0-0.3,0.6-0.1,1.1C123,15.1,123.6,15.6,123.8,15.2z"/>
	<path d="M129.4,10.7c-0.2,0,0.2,0.7,0.5,1.2c0.5,0.7,1,1.1,1.1,0.9C131.1,12.5,129.9,10.8,129.4,10.7z"/>
	<path d="M128.5,10.7c-0.2,0,0.1,0.7,0.4,1.2c0.5,0.7,1,1.2,1.1,0.9C130,12.4,129,10.8,128.5,10.7z"/>
	<path d="M137.6,19.7c0.1-0.4-1-2.2-1.5-2.3c-0.2,0.1,0.2,0.8,0.5,1.3C137,19.4,137.5,19.9,137.6,19.7z"/>
	<path d="M136.5,19.7c0.1-0.5-1-2.2-1.5-2.2c-0.3,0.1,0.1,0.8,0.4,1.3C135.9,19.6,136.4,20.1,136.5,19.7z"/>
	<path d="M135.3,16c0.1-0.3-1.1-2-1.5-2c-0.2,0.1,0.2,0.7,0.5,1.2C134.8,15.9,135.2,16.3,135.3,16z"/>
	<path d="M133.3,15.4c0.5,0.7,1,1.2,1.1,1c0.1-0.4-1.1-2.2-1.6-2.2C132.6,14.2,133,14.9,133.3,15.4z"/>
	<path d="M131.9,11.9c0.5,0.7,1,1,1,0.8c0-0.3-1.2-2-1.6-2C131.2,10.8,131.6,11.5,131.9,11.9z"/>
	<path d="M134.7,13.9c-0.2,0,0.3,0.8,0.6,1.2c0.5,0.7,1,1.1,1,0.9C136.3,15.5,135.1,13.9,134.7,13.9z"/>
	<path d="M132.8,11.8c0.5,0.6,0.9,1,1,0.8c0.1-0.3-1.3-2-1.7-2C132,10.7,132.5,11.4,132.8,11.8z"/>
	<path d="M130.4,10.7c-0.2,0,0.3,0.7,0.6,1.2c0.5,0.7,1,1.1,1.1,0.9C132.1,12.4,130.8,10.7,130.4,10.7z"/>
	<path d="M128.9,12.8c0.1-0.4-0.9-2-1.4-2.1c-0.2,0,0.1,0.7,0.4,1.2C128.3,12.6,128.8,13.1,128.9,12.8z"/>
	<path d="M126.4,10.6c-0.3,0,0.1,0.7,0.3,1.2c0.4,0.7,0.9,1.2,1,0.9C127.8,12.3,126.9,10.7,126.4,10.6z"/>
	<path d="M125.2,10.5c-0.3,0,0,0.7,0.2,1.1c0.4,0.8,0.9,1.2,1,1C126.6,12.2,125.7,10.6,125.2,10.5z"/>
	<path d="M124.1,10.3c-0.3,0,0,0.7,0.2,1.1c0.4,0.8,0.9,1.2,1,0.9C125.3,11.9,124.6,10.4,124.1,10.3z"/>
	<path d="M123.9,12.1c0.2-0.4-0.5-1.9-1.1-2c-0.3,0-0.1,0.7,0.1,1.1C123.3,12,123.8,12.4,123.9,12.1z"/>
	<path d="M122.5,11.9c0.2-0.4-0.4-1.8-1-2c-0.3,0-0.1,0.6,0,1C121.9,11.7,122.4,12.2,122.5,11.9z"/>
	<path d="M138.2,9.5L138.2,9.5c0.1,0.2,0.8,1,1.1,1.2c0.2,0.3,0.7,0.7,0.8,0.7C140.1,11.3,138.5,9.6,138.2,9.5z"/>
	<path d="M130.4,38.3c0.4-0.6,0.1-2.1-0.8-2.4c-0.6-0.1-0.7,0.7-0.6,1.3C129.2,38.2,129.9,38.8,130.4,38.3z"/>
	<path d="M130,40c-0.6,0-0.8,0.8-0.7,1.3c0.1,1.1,0.9,1.7,1.4,1.1C131.2,41.8,130.9,40.2,130,40z"/>
	<path d="M127.3,35.4c-0.6-0.1-0.7,0.7-0.7,1.2c0.1,1.1,0.9,1.7,1.3,1.2C128.4,37.2,128.1,35.6,127.3,35.4z"/>
	<path d="M127.5,39.5c-0.6-0.1-0.8,0.7-0.8,1.3c0.1,1,0.9,1.7,1.4,1.2C128.7,41.3,128.4,39.7,127.5,39.5z"/>
	<path d="M124.8,34.9c-0.6-0.1-0.8,0.6-0.7,1.2c0.1,1,0.9,1.7,1.3,1.1C125.9,36.7,125.6,35.1,124.8,34.9z"/>
	<path d="M125,38.9c-0.6-0.1-0.9,0.7-0.8,1.2c0.1,1.1,0.9,1.7,1.4,1.2S125.8,39.2,125,38.9z"/>
	<path d="M122.3,34.3c-0.6-0.1-0.9,0.6-0.8,1.2c0,1,0.8,1.7,1.3,1.2C123.4,36.1,123.1,34.6,122.3,34.3z"/>
	<path d="M122.3,38.3c-0.7-0.1-0.9,0.6-0.9,1.2c0.1,1.1,0.9,1.8,1.4,1.3C123.4,40.2,123.2,38.6,122.3,38.3z"/>
	<path d="M120.3,36c0.6-0.5,0.4-2.1-0.5-2.3c-0.6-0.1-0.9,0.6-0.9,1.1C118.9,35.8,119.7,36.5,120.3,36z"/>
	<path d="M119.6,37.6c-0.7-0.1-1,0.6-1,1.2c0,1.1,0.9,1.8,1.5,1.2C120.7,39.3,120.5,37.9,119.6,37.6z"/>
	<path d="M130.3,44.2c-0.6,0-0.8,0.7-0.8,1.3c0.1,1.1,0.9,1.7,1.4,1.1C131.4,46,131.1,44.4,130.3,44.2z"/>
	<path d="M130.4,48.4c-0.7-0.1-0.9,0.7-0.9,1.3c0.1,1.1,0.9,1.7,1.4,1.2C131.5,50.3,131.3,48.7,130.4,48.4z"/>
	<path d="M127.7,43.6c-0.6-0.1-0.9,0.7-0.8,1.3c0.1,1,0.9,1.8,1.4,1.2S128.6,43.9,127.7,43.6z"/>
	<path d="M127.6,47.9c-0.7-0.1-1,0.7-0.9,1.3c0,1.1,0.9,1.8,1.4,1.2C128.8,49.7,128.6,48.2,127.6,47.9z"/>
	<path d="M125.5,45.5c0.6-0.6,0.4-2.2-0.5-2.4c-0.7-0.1-0.9,0.7-0.9,1.2C124.1,45.4,124.9,46.1,125.5,45.5z"/>
	<path d="M124.8,47.2c-0.7-0.1-1,0.7-1,1.2c0,1.1,0.8,1.9,1.5,1.3C125.9,49.2,125.8,47.5,124.8,47.2z"/>
	<path d="M122.2,42.4c-0.7-0.1-1,0.6-1,1.2c0,1.1,0.9,1.9,1.5,1.2C123.2,44.1,123,42.7,122.2,42.4z"/>
	<path d="M121.9,46.6c-0.7-0.1-1.1,0.6-1.1,1.2c0,1.1,0.9,1.9,1.5,1.2C123,48.3,122.8,46.9,121.9,46.6z"/>
	<path d="M119.4,41.7c-0.7-0.2-1,0.6-1,1.2c0,1.1,0.9,1.9,1.5,1.2C120.4,43.4,120.2,42,119.4,41.7z"/>
	<path d="M119,45.8c-0.7-0.2-1.1,0.6-1.1,1.2c-0.1,1.1,0.9,1.9,1.5,1.3C120,47.6,119.9,46.1,119,45.8z"/>
	<path d="M130.3,52.5c-0.7-0.1-1,0.7-1,1.3c0,1.1,0.9,1.8,1.5,1.2C131.5,54.3,131.3,52.7,130.3,52.5z"/>
	<path d="M130.2,56.8c-0.7-0.1-1,0.7-1.1,1.3c0,1.1,0.9,1.8,1.5,1.2C131.3,58.7,131.1,57,130.2,56.8z"/>
	<path d="M127.5,51.9c-0.7-0.1-1,0.7-1,1.3c0,1.1,0.8,1.8,1.5,1.3C128.6,53.8,128.4,52.2,127.5,51.9z"/>
	<path d="M127.2,56.2c-0.7-0.1-1.1,0.7-1.1,1.3c0,1.1,0.8,1.8,1.5,1.3C128.3,58.2,128.2,56.5,127.2,56.2z"/>
	<path d="M124.6,51.3c-0.7-0.1-1.1,0.7-1.1,1.3c0,1.1,0.9,1.8,1.6,1.2C125.7,53.1,125.5,51.5,124.6,51.3z"/>
	<path d="M124.2,55.6c-0.7-0.1-1.1,0.7-1.2,1.3c-0.1,1.1,0.9,1.9,1.6,1.2C125.2,57.4,125.1,55.8,124.2,55.6z"/>
	<path d="M122,53c0.7-0.6,0.5-2.2-0.4-2.5c-0.7-0.2-1.1,0.6-1.2,1.2C120.3,52.9,121.3,53.7,122,53z"/>
	<path d="M121,54.8c-0.8-0.1-1.2,0.6-1.2,1.2c-0.1,1.2,0.9,1.9,1.6,1.3C122.1,56.7,122,55.1,121,54.8z"/>
	<path d="M118.9,52.2c0.7-0.6,0.6-2.1-0.4-2.4c-0.8-0.2-1.1,0.6-1.2,1.2C117.2,52.1,118.1,52.9,118.9,52.2z"/>
	<path d="M117.9,54c-0.8-0.2-1.2,0.6-1.3,1.2c-0.1,1.2,0.9,2,1.6,1.3C118.9,55.8,118.8,54.3,117.9,54z"/>
	<path d="M130.2,63.7c0.7-0.7,0.6-2.3-0.4-2.6c-0.7-0.1-1.1,0.7-1.1,1.3C128.6,63.6,129.5,64.3,130.2,63.7z"/>
	<path d="M129.3,65.5c-0.8-0.1-1.2,0.7-1.2,1.4c-0.1,1.1,0.8,1.8,1.5,1.2C130.4,67.4,130.3,65.8,129.3,65.5z"/>
	<path d="M127.1,63.1c0.7-0.6,0.7-2.3-0.4-2.6c-0.7-0.1-1.1,0.7-1.2,1.3C125.5,63,126.4,63.7,127.1,63.1z"/>
	<path d="M126.2,64.9c-0.8-0.1-1.2,0.7-1.3,1.3c-0.1,1.1,0.8,1.9,1.5,1.3C127.3,66.9,127.2,65.2,126.2,64.9z"/>
	<path d="M123.6,59.9c-0.8-0.1-1.2,0.7-1.2,1.3c-0.1,1.2,0.9,1.9,1.6,1.2S124.6,60.2,123.6,59.9z"/>
	<path d="M123.3,66.7c0.8-0.6,0.7-2.2-0.3-2.5c-0.8-0.1-1.2,0.7-1.3,1.3C121.5,66.6,122.5,67.4,123.3,66.7z"/>
	<path d="M120.4,59.1c-0.8-0.2-1.2,0.6-1.3,1.2c-0.1,1.2,0.9,2,1.6,1.3C121.5,61,121.4,59.4,120.4,59.1z"/>
	<path d="M119.9,65.9c0.8-0.6,0.7-2.2-0.3-2.5c-0.8-0.1-1.3,0.6-1.4,1.3C118.1,65.8,119.1,66.6,119.9,65.9z"/>
	<path d="M117.1,58.2c-0.8-0.2-1.3,0.6-1.4,1.2c-0.2,1.2,0.9,2,1.7,1.3C118.2,60.1,118.1,58.6,117.1,58.2z"/>
	<path d="M116.5,65.1c0.8-0.6,0.8-2.2-0.3-2.5c-0.8-0.2-1.3,0.6-1.4,1.2C114.7,64.9,115.7,65.7,116.5,65.1z"/>
	<path d="M141.1,39.6c0.4-0.6-0.2-2.4-0.9-2.5c-0.4,0.1-0.4,0.9-0.2,1.4C140.2,39.4,140.9,40,141.1,39.6z"/>
	<path d="M142.1,43.7c0.3-0.6-0.1-2.3-0.9-2.5c-0.5,0.1-0.5,0.9-0.4,1.5C141.1,43.7,141.8,44.3,142.1,43.7z"/>
	<path d="M139.2,39.4c0.3-0.6-0.2-2.3-0.9-2.4c-0.5,0-0.5,0.8-0.3,1.4C138.2,39.4,138.9,39.9,139.2,39.4z"/>
	<path d="M140,43.6c0.4-0.6-0.1-2.3-0.8-2.5c-0.5,0-0.6,0.9-0.4,1.4C139,43.6,139.7,44.2,140,43.6z"/>
	<path d="M137.1,39.3c0.4-0.6-0.1-2.3-0.9-2.4c-0.5,0-0.5,0.8-0.4,1.4C136.1,39.2,136.8,39.8,137.1,39.3z"/>
	<path d="M137.8,43.5c0.4-0.6,0-2.3-0.8-2.5c-0.5,0-0.6,0.8-0.5,1.4C136.8,43.4,137.4,44,137.8,43.5z"/>
	<path d="M134.9,39c0.4-0.6,0-2.3-0.8-2.4c-0.5,0-0.6,0.8-0.5,1.4C133.8,38.9,134.6,39.5,134.9,39z"/>
	<path d="M135.5,43.2c0.5-0.6,0.1-2.3-0.7-2.5c-0.5,0-0.6,0.8-0.5,1.4C134.4,43.1,135.1,43.7,135.5,43.2z"/>
	<path d="M132.7,38.7c0.4-0.6,0-2.2-0.8-2.4c-0.5,0-0.6,0.7-0.5,1.3C131.6,38.6,132.3,39.3,132.7,38.7z"/>
	<path d="M133.2,42.8c0.4-0.6,0.1-2.2-0.7-2.4c-0.6,0-0.7,0.8-0.6,1.3C132,42.8,132.7,43.4,133.2,42.8z"/>
	<path d="M142.8,48c0.4-0.7,0-2.4-0.8-2.5c-0.5,0.1-0.6,0.9-0.4,1.5C141.8,48,142.5,48.6,142.8,48z"/>
	<path d="M143.4,52.3c0.4-0.7,0.1-2.4-0.7-2.5c-0.5,0-0.6,0.9-0.5,1.5C142.3,52.3,143,52.9,143.4,52.3z"/>
	<path d="M140.6,47.9c0.5-0.6,0.1-2.4-0.7-2.5c-0.5,0-0.6,0.9-0.5,1.5C139.6,47.9,140.3,48.5,140.6,47.9z"/>
	<path d="M141.1,52.2c0.5-0.6,0.2-2.4-0.7-2.5c-0.5,0-0.7,0.9-0.6,1.5C140,52.2,140.7,52.8,141.1,52.2z"/>
	<path d="M138.3,47.7c0.5-0.6,0.1-2.3-0.7-2.5c-0.5,0-0.7,0.8-0.6,1.4C137.2,47.6,137.9,48.3,138.3,47.7z"/>
	<path d="M138.7,52.1c0.5-0.6,0.2-2.4-0.6-2.5c-0.6,0-0.7,0.8-0.7,1.4C137.5,52,138.3,52.6,138.7,52.1z"/>
	<path d="M136,47.4c0.5-0.7,0.1-2.3-0.7-2.4c-0.6,0-0.7,0.8-0.7,1.4C134.7,47.4,135.5,48,136,47.4z"/>
	<path d="M136.2,51.7c0.5-0.7,0.2-2.3-0.7-2.5c-0.6,0-0.8,0.8-0.7,1.4C135,51.7,135.7,52.3,136.2,51.7z"/>
	<path d="M132.8,44.6c-0.6,0-0.8,0.8-0.7,1.3c0.1,1.1,0.9,1.7,1.4,1.1C134,46.4,133.6,44.8,132.8,44.6z"/>
	<path d="M133,48.9c-0.7-0.1-0.9,0.7-0.8,1.4c0.1,1.1,0.9,1.7,1.4,1.1C134.2,50.7,133.9,49.1,133,48.9z"/>
	<path d="M143.1,53.9c-0.6,0.1-0.7,0.9-0.6,1.5c0.1,1,0.8,1.6,1.2,1C144.2,55.8,143.9,54,143.1,53.9z"/>
	<path d="M143.4,58.3c-0.6,0-0.8,0.9-0.7,1.5c0.1,1.1,0.7,1.7,1.2,1.1C144.4,60.2,144.2,58.4,143.4,58.3z"/>
	<path d="M141.4,56.4c0.5-0.6,0.3-2.4-0.5-2.5c-0.6,0-0.8,0.9-0.7,1.5C140.2,56.3,140.9,56.9,141.4,56.4z"/>
	<path d="M141,58.2c-0.6,0-0.8,0.9-0.8,1.5c0.1,1.1,0.8,1.7,1.3,1.1C142.1,60.1,141.8,58.3,141,58.2z"/>
	<path d="M138.3,53.6c-0.6,0-0.8,0.8-0.7,1.4c0.1,1.1,0.8,1.7,1.3,1.1C139.5,55.6,139.2,53.8,138.3,53.6z"/>
	<path d="M138.4,58c-0.6,0-0.9,0.8-0.9,1.4c0,1.1,0.8,1.7,1.3,1.2C139.5,59.9,139.4,58.2,138.4,58z"/>
	<path d="M135.7,53.3c-0.7,0-0.9,0.8-0.8,1.4c0.1,1.1,0.9,1.7,1.4,1.1C136.9,55.1,136.6,53.5,135.7,53.3z"/>
	<path d="M135.7,57.7c-0.7,0-0.9,0.8-0.9,1.4c0,1.1,0.8,1.8,1.4,1.1S136.7,57.9,135.7,57.7z"/>
	<path d="M133.1,53c-0.7,0-0.9,0.7-0.9,1.4c0.1,1.1,0.9,1.7,1.4,1.1C134.2,54.8,134,53.2,133.1,53z"/>
	<path d="M133,57.3c-0.7-0.1-1,0.8-1,1.4c0,1.1,0.8,1.8,1.4,1.2C134.1,59.2,133.9,57.5,133,57.3z"/>
	<path d="M145.4,36.8c-0.4,0.1-0.2,0.9,0,1.5c0.3,0.9,0.8,1.4,1,1C146.7,38.8,146.1,36.8,145.4,36.8z"/>
	<path d="M147.6,43.5c0.3-0.6-0.2-2.5-0.9-2.5c-0.4,0.1-0.3,1-0.1,1.5C146.9,43.4,147.4,43.9,147.6,43.5z"/>
	<path d="M144.8,39.4c0.3-0.6-0.3-2.4-1-2.4c-0.4,0.1-0.3,0.9-0.1,1.5C144.1,39.4,144.6,39.9,144.8,39.4z"/>
	<path d="M146,43.6c0.3-0.6-0.2-2.5-0.9-2.5c-0.4,0.1-0.4,1-0.2,1.5C145.1,43.6,145.7,44.1,146,43.6z"/>
	<path d="M143.1,39.6c0.3-0.6-0.3-2.4-1-2.5c-0.4,0.1-0.3,0.9-0.2,1.5C142.2,39.5,142.8,40,143.1,39.6z"/>
	<path d="M144.1,43.8c0.4-0.6-0.2-2.5-0.9-2.5c-0.4,0.1-0.4,0.9-0.3,1.5C143.2,43.7,143.8,44.3,144.1,43.8z"/>
	<path d="M148.6,47.8c0.4-0.6-0.1-2.6-0.8-2.6c-0.4,0.1-0.4,1-0.2,1.6C147.9,47.7,148.4,48.2,148.6,47.8z"/>
	<path d="M149.4,52.1c0.4-0.6,0-2.6-0.7-2.6c-0.4,0.1-0.4,1-0.3,1.6C148.6,52,149.1,52.5,149.4,52.1z"/>
	<path d="M146.9,47.9c0.4-0.6-0.1-2.5-0.8-2.5c-0.4,0.1-0.4,0.9-0.3,1.5C146,47.9,146.6,48.5,146.9,47.9z"/>
	<path d="M147.6,52.2c0.4-0.6,0-2.5-0.7-2.5c-0.5,0.1-0.5,1-0.4,1.6C146.7,52.2,147.3,52.8,147.6,52.2z"/>
	<path d="M144.9,48c0.4-0.6,0-2.5-0.8-2.5c-0.5,0.1-0.5,0.9-0.4,1.5C144,48,144.6,48.5,144.9,48z"/>
	<path d="M145.6,52.4c0.5-0.6,0.1-2.5-0.7-2.6c-0.5,0-0.6,0.9-0.5,1.5C144.6,52.3,145.2,52.9,145.6,52.4z"/>
	<path d="M150,56.2c0.5-0.6,0.2-2.6-0.5-2.6c-0.5,0.1-0.5,1-0.4,1.6C149.2,56.1,149.7,56.7,150,56.2z"/>
	<path d="M150.4,60.6c0.5-0.6,0.3-2.6-0.4-2.6c-0.5,0.1-0.6,1-0.5,1.6C149.5,60.5,150,61,150.4,60.6z"/>
	<path d="M148.1,56.4c0.5-0.7,0.2-2.5-0.6-2.6c-0.5,0.1-0.6,1-0.5,1.6C147.2,56.4,147.7,56.9,148.1,56.4z"/>
	<path d="M148.4,60.8c0.5-0.7,0.3-2.5-0.5-2.6c-0.5,0.1-0.6,1-0.5,1.6C147.5,60.8,148,61.3,148.4,60.8z"/>
	<path d="M146,56.5c0.5-0.7,0.2-2.5-0.6-2.6c-0.5,0.1-0.6,1-0.5,1.6C145,56.4,145.6,57,146,56.5z"/>
	<path d="M145.8,58.3c-0.5,0.1-0.7,0.9-0.6,1.6c0.1,1,0.7,1.6,1.1,1.1C146.8,60.3,146.6,58.3,145.8,58.3z"/>
	<path d="M148.2,62.5c-0.5,0.1-0.7,1-0.7,1.6c0.1,1,0.6,1.5,1.1,1C149.1,64.5,149,62.5,148.2,62.5z"/>
	<path d="M148.2,66.9c-0.5,0.1-0.8,1-0.8,1.6c0,1,0.5,1.6,1,1C149.1,68.9,149,67,148.2,66.9z"/>
	<path d="M145.9,62.6c-0.6,0-0.8,1-0.8,1.5c0.1,1,0.6,1.6,1.1,1.1C146.9,64.6,146.8,62.7,145.9,62.6z"/>
	<path d="M145.9,67.1c-0.6,0-0.8,0.9-0.8,1.6c0,1,0.6,1.5,1.1,1C146.8,69,146.8,67.1,145.9,67.1z"/>
	<path d="M151.1,34.8c-0.2,0.2,0.1,1,0.3,1.6c0.3,0.8,0.7,1.2,0.8,0.9C152.3,36.9,151.5,34.6,151.1,34.8z"/>
	<path d="M153.7,41.4c0.2-0.5-0.6-2.6-0.9-2.5l0,0c-0.2,0.2,0,1.1,0.2,1.6C153.2,41.2,153.6,41.7,153.7,41.4z"/>
	<path d="M151.4,37.8c0.2-0.4-0.6-2.7-1.1-2.5c-0.2,0.1,0,1,0.3,1.6C150.9,37.7,151.2,38.1,151.4,37.8z"/>
	<path d="M152.8,42c0.2-0.5-0.5-2.6-0.9-2.6l0,0c-0.2,0.2,0,1.1,0.2,1.6C152.3,41.8,152.7,42.2,152.8,42z"/>
	<path d="M150.4,38.3c0.2-0.5-0.6-2.6-1.1-2.5c-0.2,0.2,0,1,0.2,1.6C149.8,38.2,150.2,38.7,150.4,38.3z"/>
	<path d="M150.8,39.9c-0.2,0.1-0.1,1,0.1,1.6c0.3,0.8,0.7,1.3,0.8,0.9C152,41.9,151.3,39.8,150.8,39.9z"/>
	<path d="M149.2,38.8c0.2-0.5-0.5-2.6-1.1-2.5c-0.3,0.1-0.1,1,0.1,1.5C148.6,38.6,149.1,39.1,149.2,38.8z"/>
	<path d="M150.5,42.9c0.3-0.5-0.3-2.6-0.9-2.5c-0.3,0.2-0.2,1,0,1.6C149.9,42.8,150.4,43.3,150.5,42.9z"/>
	<path d="M147.9,39.1c0.2-0.6-0.5-2.5-1-2.5c-0.3,0.1-0.2,1,0.1,1.5C147.3,38.9,147.8,39.4,147.9,39.1z"/>
	<path d="M149.2,43.3c0.3-0.6-0.3-2.6-0.9-2.5c-0.3,0.1-0.2,1,0,1.6C148.5,43.2,149,43.6,149.2,43.3z"/>
	<path d="M154.9,45.6c0.3-0.4-0.4-2.7-0.8-2.6l0,0c-0.2,0.2,0,1.1,0.2,1.6C154.5,45.4,154.8,45.8,154.9,45.6z"/>
	<path d="M155.3,47.1L155.3,47.1c-0.2,0.2-0.1,1.1,0,1.7c0.2,0.7,0.5,1.2,0.6,1C156.3,49.4,155.7,47.1,155.3,47.1z"/>
	<path d="M151.7,34.2L151.7,34.2c-0.1,0.2,0.1,1.1,0.4,1.6c0.3,0.7,0.6,1.1,0.7,0.9C153,36.3,152,34.1,151.7,34.2z"/>
	<path d="M154.3,40.8c0.2-0.4-0.6-2.7-0.9-2.6l0,0c-0.2,0.2,0.1,1.1,0.3,1.6C154,40.6,154.2,41,154.3,40.8z"/>
	<path d="M154,37.5L154,37.5c-0.1,0.2,0.1,1.1,0.3,1.7c0.3,0.6,0.5,1,0.6,0.9C155.1,39.7,154.3,37.5,154,37.5z"/>
	<path d="M158.8,56.2c0.2-0.4-0.1-2.7-0.4-2.7l0,0c-0.1,0.2,0,1.2,0.1,1.7C158.5,55.9,158.7,56.4,158.8,56.2z"/>
	<path d="M157.6,49.5L157.6,49.5c-0.1,0.3,0,1.2,0.1,1.8c0.1,0.7,0.3,1,0.4,0.9C158.3,51.8,157.9,49.5,157.6,49.5z"/>
	<path d="M159.4,64.9c0.2-0.2,0.2-2.8,0-2.8l0,0c-0.1,0.3-0.2,1.2-0.1,1.8C159.2,64.6,159.3,64.9,159.4,64.9z"/>
	<path d="M159.2,60.8c0.2-0.4,0.1-2.8-0.2-2.8l-0.1,0.1c-0.1,0.2-0.1,1.2,0,1.8C159,60.5,159.1,60.9,159.2,60.8z"/>
	<path d="M159.3,70.6L159.3,70.6c-0.2,0.3-0.3,1.3-0.4,1.9c0,0.6,0,1.1,0.1,1C159.3,73.2,159.5,70.6,159.3,70.6z"/>
	<path d="M158.9,75.1c-0.1,0.2-0.2,0.6-0.3,1h0.3C158.9,75.5,159,75.1,158.9,75.1L158.9,75.1z"/>
	<path d="M159.3,69.4c0.3-0.2,0.4-2.9,0.1-2.8l0,0c-0.1,0.3-0.2,1.2-0.2,1.8C159.2,69,159.2,69.4,159.3,69.4z"/>
	<path d="M156.6,45.3L156.6,45.3c-0.1,0.3,0,1.2,0.2,1.8c0.2,0.7,0.4,1,0.5,0.9C157.5,47.7,156.9,45.3,156.6,45.3z"/>
	<path d="M155.4,41.4L155.4,41.4c-0.1,0.3,0.1,1.2,0.3,1.7c0.2,0.7,0.5,1,0.5,0.9C156.4,43.7,155.7,41.4,155.4,41.4z"/>
	<path d="M159.4,74L159.4,74c-0.2,0.4-0.3,1.3-0.4,1.9c0,0.1,0,0.2,0,0.2h0.1C159.3,75.3,159.5,74,159.4,74z"/>
	<path d="M154.8,42.3c-0.2,0.2,0,1.1,0.2,1.7c0.2,0.7,0.5,1.1,0.6,0.9C155.9,44.5,155.2,42.2,154.8,42.3z"/>
	<path d="M156.1,46.5L156.1,46.5c-0.2,0.2,0,1.1,0.1,1.7c0.2,0.7,0.4,1.1,0.5,0.9C157,48.7,156.4,46.3,156.1,46.5z"/>
	<path d="M153.3,43.6L153.3,43.6c-0.3,0.2-0.1,1.1,0.1,1.7c0.2,0.8,0.6,1.2,0.7,1C154.3,45.7,153.7,43.5,153.3,43.6z"/>
	<path d="M155.1,50.4c0.3-0.5-0.2-2.7-0.7-2.6l0,0c-0.2,0.2-0.1,1.1,0,1.7C154.6,50.3,154.9,50.7,155.1,50.4z"/>
	<path d="M153,46.7c0.3-0.5-0.3-2.7-0.8-2.6c-0.3,0.2-0.1,1.1,0,1.6C152.4,46.6,152.8,47.1,153,46.7z"/>
	<path d="M153.9,50.9c0.3-0.6-0.2-2.7-0.7-2.6c-0.3,0.2-0.2,1.1-0.1,1.7C153.4,50.9,153.7,51.3,153.9,50.9z"/>
	<path d="M151.7,47.2c0.3-0.5-0.2-2.6-0.8-2.6c-0.3,0.1-0.2,1-0.1,1.6C151,47,151.5,47.5,151.7,47.2z"/>
	<path d="M152.6,51.4c0.3-0.5-0.1-2.7-0.7-2.6c-0.3,0.2-0.3,1.1-0.2,1.7C152,51.3,152.4,51.8,152.6,51.4z"/>
	<path d="M150.2,47.5c0.3-0.6-0.2-2.6-0.8-2.5c-0.4,0.1-0.3,1-0.2,1.6C149.5,47.4,150,47.9,150.2,47.5z"/>
	<path d="M151.1,51.8c0.4-0.6,0-2.6-0.7-2.6c-0.4,0.2-0.4,1-0.2,1.6C150.4,51.7,150.9,52.2,151.1,51.8z"/>
	<path d="M156.3,51.2L156.3,51.2c-0.2,0.2-0.2,1.1,0,1.7c0.2,0.7,0.4,1.2,0.5,1C157.1,53.4,156.7,51.1,156.3,51.2z"/>
	<path d="M155.3,51.8L155.3,51.8c-0.3,0.2-0.2,1.2-0.1,1.7c0.2,0.8,0.5,1.3,0.6,1C156.2,54,155.7,51.7,155.3,51.8z"/>
	<path d="M156.4,58.8c0.4-0.5,0.1-2.8-0.4-2.7l0,0c-0.3,0.2-0.3,1.1-0.2,1.7C155.9,58.6,156.2,59.1,156.4,58.8z"/>
	<path d="M154.6,55c0.3-0.6,0-2.8-0.5-2.6c-0.3,0.2-0.3,1.1-0.2,1.7C154.1,55,154.4,55.4,154.6,55z"/>
	<path d="M155.1,59.4c0.5-0.5,0.2-2.7-0.3-2.7l0,0c-0.3,0.2-0.3,1.1-0.3,1.7C154.6,59.2,154.9,59.7,155.1,59.4z"/>
	<path d="M153.3,55.6c0.4-0.5,0.1-2.7-0.5-2.6c-0.3,0.2-0.3,1.1-0.2,1.7C152.6,55.4,153,55.9,153.3,55.6z"/>
	<path d="M153.7,59.9c0.5-0.6,0.2-2.7-0.4-2.7h-0.1c-0.4,0.2-0.4,1-0.3,1.7C153.1,59.8,153.5,60.3,153.7,59.9z"/>
	<path d="M151.7,55.9c0.4-0.6,0.1-2.6-0.6-2.6c-0.4,0.1-0.4,1-0.3,1.6C151,55.8,151.5,56.3,151.7,55.9z"/>
	<path d="M152.2,60.3c0.5-0.7,0.3-2.7-0.4-2.7c-0.4,0.1-0.5,1.1-0.4,1.7C151.4,60.2,151.9,60.7,152.2,60.3z"/>
	<path d="M150.2,62.4c-0.5,0.1-0.6,1-0.6,1.6c0.1,0.9,0.5,1.4,0.9,1C151.1,64.4,151,62.4,150.2,62.4z"/>
	<path d="M156.7,63.2c0.4-0.6,0.2-2.8-0.2-2.7l0,0c-0.3,0.2-0.3,1.1-0.2,1.7C156.3,63,156.5,63.4,156.7,63.2z"/>
	<path d="M155.3,61.1L155.3,61.1c-0.4,0.2-0.5,1.1-0.4,1.7c0.1,0.8,0.4,1.3,0.6,1C155.9,63.3,155.7,61,155.3,61.1z"/>
	<path d="M153.8,61.6L153.8,61.6c-0.4,0.2-0.5,1.1-0.5,1.7c0.1,0.8,0.4,1.3,0.7,1C154.5,63.6,154.4,61.6,153.8,61.6z"/>
	<path d="M152.4,64.7c0.5-0.7,0.4-2.7-0.3-2.7c-0.4,0.2-0.5,1.1-0.5,1.7C151.6,64.6,152.1,65.1,152.4,64.7z"/>
	<path d="M150.4,66.9L150.4,66.9c-0.6,0.1-0.8,1-0.8,1.6c0,1,0.5,1.5,0.9,1.1C151.1,68.9,151,67,150.4,66.9z"/>
	<path d="M152.3,66.6L152.3,66.6c-0.5,0.1-0.7,1-0.7,1.6c0,0.9,0.4,1.4,0.7,1C153,68.7,152.9,66.6,152.3,66.6z"/>
	<path d="M143.5,62.7c-0.6,0.1-0.8,0.9-0.8,1.5c0.1,1,0.7,1.6,1.2,1C144.5,64.6,144.3,62.8,143.5,62.7z"/>
	<path d="M141,62.6c-0.6,0-0.9,0.8-0.9,1.5c0,1.1,0.7,1.7,1.3,1.1C142,64.5,141.9,62.7,141,62.6z"/>
	<path d="M138.7,65c0.7-0.6,0.6-2.4-0.4-2.6c-0.7,0-0.9,0.8-0.9,1.4C137.4,64.9,138.1,65.5,138.7,65z"/>
	<path d="M138.1,66.8c-0.7,0-1,0.8-1,1.4c0,1.1,0.7,1.7,1.3,1.1C139.1,68.8,139.1,67,138.1,66.8z"/>
	<path d="M136,64.6c0.7-0.7,0.5-2.3-0.4-2.5c-0.7-0.1-1,0.8-1,1.4C134.6,64.6,135.4,65.3,136,64.6z"/>
	<path d="M135.3,66.5c-0.7-0.1-1.1,0.8-1.1,1.4c-0.1,1.1,0.8,1.8,1.4,1.1C136.3,68.3,136.2,66.7,135.3,66.5z"/>
	<path d="M143.2,67.1c-0.6,0.1-0.9,0.9-0.9,1.6c0,1,0.7,1.6,1.2,1C144.2,69,144.1,67.2,143.2,67.1z"/>
	<path d="M140.6,67c-0.7,0-0.9,0.9-1,1.5c0,1,0.7,1.7,1.2,1.1C141.6,68.9,141.6,67.1,140.6,67z"/>
	<path d="M133.1,64.2c0.7-0.7,0.6-2.3-0.4-2.5c-0.7-0.1-1,0.8-1.1,1.3C131.6,64.1,132.5,64.8,133.1,64.2z"/>
	<path d="M132.3,66c-0.7,0-1.1,0.8-1.2,1.4c-0.1,1.1,0.8,1.8,1.5,1.2C133.4,68,133.3,66.3,132.3,66z"/>
	<path d="M128.7,69.9c-0.8-0.1-1.2,0.7-1.3,1.3c-0.1,1.1,0.8,1.8,1.5,1.2C129.7,71.8,129.7,70.2,128.7,69.9z"/>
	<path d="M127.8,74.3c-0.8-0.1-1.3,0.7-1.3,1.3c0,0.2,0,0.3,0,0.5h2C128.8,75.4,128.6,74.5,127.8,74.3z"/>
	<path d="M125.5,69.3c-0.8-0.1-1.3,0.7-1.3,1.3c-0.1,1.1,0.8,1.9,1.5,1.3C126.5,71.2,126.5,69.6,125.5,69.3z"/>
	<path d="M124.6,73.6c-0.8-0.1-1.3,0.7-1.4,1.3c-0.1,0.5,0.1,0.9,0.3,1.2h1.4C125.6,75.4,125.6,73.9,124.6,73.6z"/>
	<path d="M122.2,68.5c-0.8-0.1-1.3,0.7-1.4,1.3c-0.2,1.2,0.9,1.9,1.7,1.2C123.2,70.4,123.2,68.8,122.2,68.5z"/>
	<path d="M121.2,72.9c-0.9-0.1-1.3,0.7-1.5,1.3c-0.2,1.2,0.8,2,1.7,1.3C122.2,74.8,122.3,73.2,121.2,72.9z"/>
	<path d="M118.8,67.7c-0.9-0.2-1.4,0.6-1.4,1.2c-0.2,1.2,0.8,2,1.7,1.3C119.8,69.6,119.8,68,118.8,67.7z"/>
	<path d="M117.7,72.1c-0.9-0.2-1.4,0.6-1.5,1.2c-0.2,1.2,0.8,2,1.7,1.3C118.8,74,118.8,72.4,117.7,72.1z"/>
	<path d="M115.3,66.8c-0.9-0.2-1.4,0.6-1.5,1.2c-0.2,1.2,0.8,2,1.7,1.4C116.4,68.7,116.4,67.2,115.3,66.8z"/>
	<path d="M114.2,71.1c-0.9-0.2-1.4,0.6-1.5,1.2c-0.2,1.2,0.8,2,1.7,1.4C115.3,73.1,115.3,71.5,114.2,71.1z"/>
	<path d="M137.1,75.6c-0.4,0-0.6,0.2-0.8,0.5h1.4C137.5,75.8,137.3,75.6,137.1,75.6z"/>
	<path d="M134.8,70.8c-0.7,0-1.1,0.8-1.2,1.4c-0.1,1.2,0.7,1.8,1.4,1.2C135.8,72.7,135.7,71.1,134.8,70.8z"/>
	<path d="M134.1,75.3c-0.5,0-0.9,0.4-1.1,0.8h1.8C134.7,75.7,134.5,75.3,134.1,75.3z"/>
	<path d="M131.7,70.4c-0.8-0.1-1.2,0.8-1.2,1.3c-0.1,1.2,0.7,1.8,1.5,1.2C132.7,72.3,132.7,70.6,131.7,70.4z"/>
	<path d="M140.2,71.4c-0.7,0-1,0.9-1.1,1.5c-0.1,1.1,0.6,1.7,1.2,1.1C141.1,73.3,141.1,71.5,140.2,71.4z"/>
	<path d="M137.3,71.1c-0.7,0-1.1,0.8-1.1,1.5c-0.1,1,0.7,1.7,1.3,1.2C138.3,73.1,138.3,71.3,137.3,71.1z"/>
	<path d="M131,74.8c-0.7-0.1-1.2,0.7-1.3,1.3h2.1C131.8,75.5,131.5,74.9,131,74.8z"/>
	<path d="M117.2,32.9c-0.6-0.1-0.9,0.6-0.9,1.1c0,1,0.8,1.8,1.4,1.2C118.2,34.6,118,33.2,117.2,32.9z"/>
	<path d="M116.9,36.8c-0.7-0.2-1,0.6-1,1.1c-0.1,1.1,0.8,1.8,1.5,1.2C117.9,38.6,117.7,37.1,116.9,36.8z"/>
	<path d="M115,34.4c0.5-0.5,0.4-2-0.4-2.3c-0.6-0.1-1,0.6-1,1.1C113.5,34.2,114.4,34.9,115,34.4z"/>
	<path d="M113,37.1c-0.1,1.1,0.8,1.8,1.5,1.2c0.6-0.5,0.5-2-0.4-2.3C113.4,35.8,113.1,36.5,113,37.1z"/>
	<path d="M111.9,31.2c-0.7-0.2-1,0.5-1.1,1c-0.1,1,0.8,1.8,1.4,1.2C112.8,33,112.7,31.5,111.9,31.2z"/>
	<path d="M111.6,37.4c0.6-0.6,0.6-2-0.3-2.3c-0.7-0.2-1.1,0.5-1.2,1.1C110,37.2,110.9,38,111.6,37.4z"/>
	<path d="M109.4,32.6c0.6-0.5,0.6-1.9-0.2-2.3c-0.7-0.2-1.1,0.5-1.1,1C107.9,32.3,108.8,33.1,109.4,32.6z"/>
	<path d="M108.4,34.1c-0.7-0.2-1.1,0.5-1.2,1.1c-0.2,1,0.7,1.8,1.4,1.3C109.3,35.9,109.3,34.5,108.4,34.1z"/>
	<path d="M116.5,40.8c-0.7-0.1-1.1,0.6-1.1,1.1c-0.1,1.1,0.8,1.9,1.5,1.2C117.5,42.7,117.4,41.2,116.5,40.8z"/>
	<path d="M116,44.9c-0.7-0.2-1.1,0.6-1.2,1.1c-0.1,1.1,0.9,1.9,1.6,1.3C117,46.8,116.9,45.2,116,44.9z"/>
	<path d="M113.6,40c-0.7-0.2-1.1,0.5-1.2,1.1c-0.1,1.1,0.8,1.9,1.5,1.3C114.6,41.8,114.5,40.3,113.6,40z"/>
	<path d="M112.9,44c-0.7-0.2-1.2,0.5-1.2,1.1c-0.1,1.1,0.8,1.9,1.6,1.3C113.9,45.9,113.9,44.4,112.9,44z"/>
	<path d="M110.6,39c-0.7-0.2-1.2,0.5-1.2,1.1c-0.1,1.1,0.8,1.9,1.5,1.3C111.6,40.9,111.5,39.4,110.6,39z"/>
	<path d="M110.1,45.4c0.7-0.5,0.7-2-0.2-2.4c-0.8-0.2-1.2,0.5-1.3,1.1C108.4,45.2,109.3,46,110.1,45.4z"/>
	<path d="M107.6,38c-0.8-0.2-1.2,0.5-1.3,1c-0.2,1.1,0.7,1.9,1.5,1.4C108.5,39.8,108.5,38.4,107.6,38z"/>
	<path d="M106.8,44.3c0.8-0.5,0.8-2-0.2-2.4c-0.8-0.2-1.3,0.5-1.4,1C105.1,44.1,106,44.9,106.8,44.3z"/>
	<path d="M115.7,51.3c0.7-0.6,0.6-2.1-0.3-2.5c-0.8-0.2-1.2,0.6-1.3,1.2C114,51.1,115,51.9,115.7,51.3z"/>
	<path d="M114.6,53c-0.8-0.2-1.3,0.6-1.4,1.2c-0.1,1.2,0.9,2,1.7,1.3C115.7,55,115.6,53.4,114.6,53z"/>
	<path d="M112.5,50.4c0.7-0.5,0.7-2.1-0.3-2.4c-0.8-0.2-1.2,0.5-1.3,1.1C110.7,50.1,111.7,51,112.5,50.4z"/>
	<path d="M111.4,52.1c-0.8-0.2-1.3,0.5-1.4,1.1c-0.1,1.1,0.8,2,1.6,1.4C112.4,54,112.4,52.4,111.4,52.1z"/>
	<path d="M109,46.9c-0.8-0.2-1.3,0.5-1.4,1.1c-0.2,1.1,0.8,1.9,1.6,1.4C110,48.8,110,47.3,109,46.9z"/>
	<path d="M108,51c-0.8-0.2-1.3,0.5-1.4,1.1c-0.2,1.1,0.8,2,1.6,1.4C109,52.9,109,51.4,108,51z"/>
	<path d="M105.7,45.7c-0.8-0.2-1.3,0.5-1.4,1.1c-0.2,1.1,0.8,2,1.6,1.4C106.7,47.7,106.7,46.2,105.7,45.7z"/>
	<path d="M104.6,49.8c-0.8-0.2-1.4,0.5-1.5,1c-0.2,1.1,0.8,2,1.7,1.4C105.6,51.8,105.6,50.3,104.6,49.8z"/>
	<path d="M113.8,57.3c-0.8-0.2-1.3,0.5-1.4,1.2c-0.2,1.1,0.9,2,1.7,1.3C114.8,59.2,114.8,57.7,113.8,57.3z"/>
	<path d="M113.1,64.1c0.8-0.6,0.8-2.2-0.2-2.5c-0.9-0.2-1.4,0.6-1.5,1.2C111.2,63.9,112.2,64.7,113.1,64.1z"/>
	<path d="M110.6,58.8c0.8-0.5,0.8-2.1-0.2-2.5c-0.9-0.2-1.4,0.6-1.5,1.1C108.8,58.5,109.8,59.4,110.6,58.8z"/>
	<path d="M109.4,60.5c-0.9-0.2-1.4,0.5-1.5,1.1c-0.2,1.2,0.8,2,1.7,1.4C110.4,62.5,110.4,60.9,109.4,60.5z"/>
	<path d="M107.1,57.7c0.8-0.6,0.9-2.1-0.2-2.5c-0.9-0.2-1.4,0.5-1.5,1.1C105.2,57.4,106.3,58.3,107.1,57.7z"/>
	<path d="M105.8,59.4c-0.9-0.2-1.4,0.5-1.6,1.1c-0.2,1.2,0.8,2,1.7,1.5C106.8,61.4,106.9,59.8,105.8,59.4z"/>
	<path d="M103.4,54c-0.9-0.2-1.4,0.5-1.5,1.1c-0.2,1.1,0.8,2,1.7,1.5C104.4,56,104.5,54.4,103.4,54z"/>
	<path d="M102.3,60.7c0.9-0.5,1-2.1-0.1-2.6c-0.9-0.2-1.5,0.5-1.6,1.1C100.3,60.3,101.4,61.3,102.3,60.7z"/>
	<path d="M111.8,65.8c-0.9-0.2-1.4,0.6-1.5,1.2c-0.2,1.2,0.8,2,1.7,1.4C112.8,67.8,112.9,66.2,111.8,65.8z"/>
	<path d="M108.2,64.7c-0.9-0.2-1.5,0.5-1.6,1.1c-0.2,1.2,0.8,2,1.7,1.4C109.3,66.7,109.3,65.2,108.2,64.7z"/>
	<path d="M104.6,63.6c-0.9-0.3-1.5,0.5-1.6,1.1c-0.3,1.1,0.8,2,1.8,1.5C105.6,65.6,105.7,64,104.6,63.6z"/>
	<path d="M103.3,67.8c-0.9-0.3-1.5,0.5-1.7,1.1c-0.3,1.2,0.8,2.1,1.8,1.5C104.3,69.8,104.4,68.3,103.3,67.8z"/>
	<path d="M100.9,62.3c-0.9-0.3-1.5,0.5-1.6,1.1c-0.3,1.2,0.8,2.1,1.7,1.5C101.9,64.4,102,62.8,100.9,62.3z"/>
	<path d="M99.5,66.6c-1-0.3-1.6,0.4-1.7,1c-0.3,1.2,0.8,2.1,1.8,1.6C100.6,68.6,100.6,67,99.5,66.6z"/>
	<path d="M98,70.8c-0.9-0.2-1.6,0.4-1.7,1c-0.3,1.2,0.8,2.1,1.8,1.6C99.1,72.9,99.2,71.3,98,70.8z"/>
	<path d="M96.5,75c-1-0.2-1.6,0.5-1.8,1.1h2.6C97.3,75.6,97,75.2,96.5,75z"/>
	<path d="M129.2,30.4c0.4-0.5-0.1-2.1-0.8-2.3c-0.5,0-0.6,0.7-0.4,1.2C128.2,30.3,128.9,30.9,129.2,30.4z"/>
	<path d="M129.9,34.4c0.4-0.6,0-2.1-0.8-2.3c-0.5-0.1-0.6,0.7-0.5,1.3C128.8,34.3,129.5,34.9,129.9,34.4z"/>
	<path d="M127.1,29.9c0.4-0.5-0.1-2-0.8-2.3c-0.5-0.1-0.6,0.7-0.5,1.2C126,29.9,126.8,30.5,127.1,29.9z"/>
	<path d="M127.6,34c0.4-0.6,0.1-2.1-0.7-2.4c-0.5-0.1-0.7,0.7-0.6,1.3C126.5,33.9,127.2,34.5,127.6,34z"/>
	<path d="M124.9,29.5c0.4-0.5,0-2-0.7-2.3c-0.5-0.1-0.6,0.7-0.5,1.2C123.8,29.4,124.5,30,124.9,29.5z"/>
	<path d="M125.2,33.4c0.5-0.6,0.2-2.1-0.6-2.3c-0.6-0.1-0.7,0.6-0.7,1.2C124.1,33.3,124.8,34,125.2,33.4z"/>
	<path d="M122,26.6c-0.5-0.1-0.7,0.7-0.6,1.2c0.1,1,0.8,1.6,1.2,1.1C123,28.4,122.7,26.9,122,26.6z"/>
	<path d="M122.2,30.5c-0.6-0.1-0.8,0.6-0.7,1.2c0.1,1,0.8,1.7,1.3,1.2C123.3,32.3,123,30.8,122.2,30.5z"/>
	<path d="M119.8,26.1c-0.6-0.1-0.7,0.6-0.7,1.1c0.1,1,0.8,1.6,1.2,1.1C120.8,27.8,120.5,26.3,119.8,26.1z"/>
	<path d="M119.8,29.9c-0.6-0.1-0.8,0.6-0.8,1.2c0,1,0.8,1.7,1.3,1.2C120.9,31.7,120.6,30.2,119.8,29.9z"/>
	<path d="M137.7,29.1c-0.4,0.1-0.3,0.8-0.1,1.4c0.3,0.9,0.9,1.4,1.1,1C139.1,31,138.4,29.2,137.7,29.1z"/>
	<path d="M140.1,35.6c0.3-0.6-0.3-2.4-1-2.4c-0.4,0-0.4,0.8-0.2,1.4C139.3,35.5,139.9,36,140.1,35.6z"/>
	<path d="M137.1,31.5c0.3-0.5-0.4-2.3-1-2.4c-0.4,0-0.3,0.8-0.1,1.4C136.2,31.3,136.8,31.9,137.1,31.5z"/>
	<path d="M138.3,35.5c0.3-0.6-0.3-2.3-1-2.4c-0.4,0-0.4,0.8-0.2,1.4C137.3,35.5,138,36,138.3,35.5z"/>
	<path d="M135.3,31.3c0.3-0.6-0.3-2.2-1-2.3c-0.4,0-0.4,0.8-0.2,1.3C134.4,31.2,135,31.8,135.3,31.3z"/>
	<path d="M136.3,35.3c0.3-0.6-0.2-2.2-0.9-2.4c-0.5,0-0.5,0.8-0.3,1.4C135.3,35.3,136,35.8,136.3,35.3z"/>
	<path d="M133.3,31c0.3-0.5-0.3-2.2-0.9-2.3c-0.4,0-0.4,0.8-0.3,1.3C132.4,31,133,31.5,133.3,31z"/>
	<path d="M134.2,35.1c0.4-0.6-0.1-2.2-0.9-2.4c-0.5,0-0.5,0.8-0.4,1.4C133.2,35,133.9,35.6,134.2,35.1z"/>
	<path d="M131.3,30.8c0.4-0.5-0.1-2.2-0.8-2.3c-0.5,0-0.5,0.7-0.3,1.3C130.3,30.6,131,31.2,131.3,30.8z"/>
	<path d="M132.1,34.8c0.4-0.6,0-2.2-0.8-2.4c-0.5-0.1-0.6,0.7-0.5,1.3C131,34.7,131.7,35.3,132.1,34.8z"/>
	<path d="M143.6,31.3c0.2-0.5-0.6-2.4-1.2-2.4c-0.3,0.1-0.1,0.9,0.2,1.4C142.9,31.2,143.4,31.7,143.6,31.3z"/>
	<path d="M145.1,35.4c0.2-0.6-0.5-2.5-1.1-2.5c-0.3,0.1-0.2,0.9,0.1,1.5C144.4,35.3,145,35.7,145.1,35.4z"/>
	<path d="M142.1,31.5c0.2-0.5-0.6-2.4-1.2-2.4c-0.3,0.1-0.1,0.9,0.1,1.4C141.4,31.3,141.9,31.8,142.1,31.5z"/>
	<path d="M143.6,35.5c0.2-0.6-0.5-2.4-1.1-2.4c-0.4,0.1-0.2,0.9,0,1.5C142.8,35.5,143.4,36,143.6,35.5z"/>
	<path d="M140.6,31.5c0.2-0.6-0.6-2.3-1.2-2.4c-0.4,0.1-0.2,0.8,0,1.4C139.8,31.4,140.4,32,140.6,31.5z"/>
	<path d="M141.9,35.6c0.3-0.6-0.4-2.4-1.1-2.4c-0.4,0-0.3,0.9-0.1,1.4C141.1,35.5,141.7,36,141.9,35.6z"/>
	<path d="M148.7,29.5c0.1-0.4-1-2.5-1.3-2.4c-0.1,0.2,0.2,1,0.5,1.5C148.2,29.4,148.6,29.8,148.7,29.5z"/>
	<path d="M149.3,31c-0.1,0.2,0.2,1,0.4,1.6c0.4,0.7,0.7,1.2,0.8,0.9C150.7,33.1,149.7,30.8,149.3,31z"/>
	<path d="M157.9,68.5c-0.3,0.2-0.4,1.2-0.4,1.8c0,0.7,0.1,1.1,0.3,1C158.1,71,158.3,68.5,157.9,68.5L157.9,68.5z"/>
	<path d="M157.7,72.9L157.7,72.9c-0.3,0.3-0.5,1.2-0.5,1.8c-0.1,0.7,0,1.1,0.2,1C157.8,75.3,158.1,72.9,157.7,72.9z"/>
	<path d="M157.9,64.4L157.9,64.4c-0.3,0.2-0.4,1.2-0.4,1.8c0,0.7,0.2,1.2,0.4,1C158.3,66.7,158.2,64.4,157.9,64.4z"/>
	<path d="M146.6,27.6c-0.2,0.2,0.2,1,0.4,1.5c0.4,0.7,0.8,1.2,0.9,0.9C148,29.7,147,27.5,146.6,27.6z"/>
	<path d="M148.6,31.5c-0.2,0.2,0.1,1,0.4,1.6c0.4,0.7,0.7,1.2,0.8,0.9C149.9,33.6,149,31.4,148.6,31.5z"/>
	<path d="M145.7,28c-0.2,0.2,0.1,1,0.4,1.5c0.4,0.8,0.8,1.2,0.9,0.9C147.2,29.9,146.2,28,145.7,28z"/>
	<path d="M148.8,34.4c0.2-0.5-0.7-2.6-1.2-2.5c-0.2,0.2,0,1,0.3,1.6C148.3,34.3,148.8,34.7,148.8,34.4z"/>
	<path d="M146,30.8c0.2-0.5-0.7-2.5-1.3-2.4c-0.2,0.1,0,0.9,0.3,1.5C145.5,30.7,145.9,31.1,146,30.8z"/>
	<path d="M147.7,34.9c0.2-0.5-0.6-2.5-1.1-2.5c-0.3,0.1,0,1,0.2,1.5C147.2,34.7,147.6,35.2,147.7,34.9z"/>
	<path d="M144.9,31.1c0.2-0.5-0.7-2.4-1.2-2.4c-0.3,0.1,0,0.9,0.2,1.5C144.3,31,144.8,31.5,144.9,31.1z"/>
	<path d="M145.4,32.7c-0.3,0.1-0.1,1,0.1,1.5c0.4,0.8,0.9,1.3,1,0.9C146.7,34.6,145.9,32.6,145.4,32.7z"/>
	<path d="M147.9,26.6L147.9,26.6c-0.1,0.2,0.3,1,0.6,1.5c0.4,0.7,0.7,1,0.8,0.8C149.3,28.6,148.2,26.5,147.9,26.6z"/>
	<path d="M149.9,30.5L149.9,30.5c-0.1,0.2,0.2,1,0.5,1.6c0.3,0.7,0.7,1.1,0.7,0.9C151.3,32.5,150.2,30.4,149.9,30.5z"/>
	<path d="M117.5,25.4c-0.6-0.1-0.8,0.6-0.8,1.1c0,1,0.7,1.6,1.2,1.2C118.4,27.2,118.3,25.7,117.5,25.4z"/>
	<path d="M117.4,29.2c-0.6-0.1-0.9,0.6-0.9,1.1c0,1,0.8,1.7,1.3,1.2C118.4,31,118.2,29.5,117.4,29.2z"/>
	<path d="M115.5,26.9c0.6-0.5,0.4-1.9-0.4-2.2c-0.6-0.1-0.8,0.5-0.8,1C114.3,26.7,115,27.4,115.5,26.9z"/>
	<path d="M115.3,30.7c0.5-0.6,0.4-1.9-0.4-2.2c-0.6-0.1-0.9,0.5-0.9,1.1C114,30.6,114.8,31.3,115.3,30.7z"/>
	<path d="M112.8,24c-0.6-0.2-0.9,0.5-0.9,1c0,1,0.6,1.7,1.2,1.2C113.7,25.7,113.6,24.3,112.8,24z"/>
	<path d="M111.4,28.7c-0.1,1,0.7,1.7,1.3,1.2c0.6-0.5,0.5-1.9-0.3-2.2C111.8,27.5,111.5,28.2,111.4,28.7z"/>
	<path d="M109.5,24.1c-0.1,1,0.7,1.7,1.2,1.2c0.6-0.5,0.5-1.8-0.2-2.1C109.8,23,109.5,23.6,109.5,24.1z"/>
	<path d="M109.8,26.8c-0.6-0.2-1,0.5-1.1,1c-0.1,1,0.7,1.7,1.3,1.2C110.7,28.5,110.6,27.1,109.8,26.8z"/>
	<path d="M127.5,22.5c0.3-0.5-0.3-2-0.9-2.2c-0.4,0-0.4,0.7-0.2,1.2C126.6,22.4,127.2,23,127.5,22.5z"/>
	<path d="M128.4,26.3c0.3-0.5-0.2-2.1-0.9-2.3c-0.5-0.1-0.5,0.7-0.3,1.2C127.5,26.2,128.1,26.8,128.4,26.3z"/>
	<path d="M125.6,22.2c0.3-0.5-0.2-2-0.8-2.2c-0.4,0-0.4,0.6-0.3,1.1C124.8,22,125.4,22.6,125.6,22.2z"/>
	<path d="M126.4,26c0.3-0.5-0.1-2.1-0.8-2.3c-0.5,0-0.5,0.7-0.4,1.2C125.5,25.8,126.1,26.4,126.4,26z"/>
	<path d="M123.7,21.8c0.3-0.5-0.1-2-0.7-2.2c-0.4-0.1-0.5,0.6-0.3,1.1C122.8,21.6,123.4,22.2,123.7,21.8z"/>
	<path d="M124.4,25.5c0.3-0.5-0.1-2-0.7-2.2c-0.5-0.1-0.6,0.7-0.5,1.1C123.4,25.4,124.1,26,124.4,25.5z"/>
	<path d="M121.8,21.2c0.3-0.5-0.1-1.9-0.7-2.1c-0.5-0.1-0.5,0.6-0.4,1.1C120.9,21.1,121.5,21.8,121.8,21.2z"/>
	<path d="M122.3,25c0.4-0.5,0-2-0.7-2.2c-0.5,0-0.6,0.6-0.5,1.1C121.2,24.8,121.9,25.5,122.3,25z"/>
	<path d="M119.8,20.7c0.4-0.5,0-1.9-0.6-2.1c-0.5-0.1-0.6,0.6-0.5,1C118.9,20.6,119.5,21.2,119.8,20.7z"/>
	<path d="M119.6,22.2c-0.5-0.1-0.7,0.6-0.6,1.1c0.1,0.9,0.8,1.6,1.2,1.1C120.5,23.9,120.2,22.5,119.6,22.2z"/>
	<path d="M135.7,23.5c0.1-0.5-0.7-2.2-1.3-2.2c-0.3,0-0.1,0.8,0.2,1.3C135,23.4,135.6,23.9,135.7,23.5z"/>
	<path d="M137.3,27.4c0.2-0.5-0.6-2.2-1.2-2.3c-0.4,0.1-0.2,0.8,0.1,1.4C136.6,27.3,137.2,27.8,137.3,27.4z"/>
	<path d="M134.2,23.4c0.2-0.5-0.6-2.2-1.2-2.3c-0.3,0-0.1,0.8,0.1,1.3C133.5,23.3,134.1,23.8,134.2,23.4z"/>
	<path d="M135.7,27.3c0.2-0.5-0.5-2.2-1.1-2.3c-0.4,0-0.2,0.8,0,1.3C134.9,27.2,135.5,27.7,135.7,27.3z"/>
	<path d="M132.6,23.3c0.2-0.5-0.5-2.2-1.1-2.3c-0.4,0-0.2,0.7,0,1.3C131.9,23.2,132.4,23.7,132.6,23.3z"/>
	<path d="M134,27.2c0.3-0.5-0.4-2.2-1-2.3c-0.4,0-0.3,0.8-0.1,1.3C133.2,27,133.8,27.6,134,27.2z"/>
	<path d="M129.9,20.9c-0.4,0-0.3,0.7-0.1,1.2c0.3,0.8,0.9,1.4,1.1,1C131.2,22.6,130.5,21,129.9,20.9z"/>
	<path d="M132.2,26.9c0.3-0.5-0.3-2.1-1-2.3c-0.4,0-0.4,0.8-0.2,1.3C131.3,26.8,132,27.4,132.2,26.9z"/>
	<path d="M129.2,22.8c0.2-0.5-0.4-2.1-1-2.2c-0.4,0-0.3,0.7-0.1,1.2C128.4,22.7,129,23.3,129.2,22.8z"/>
	<path d="M130.3,26.6c0.3-0.5-0.3-2.1-0.9-2.3c-0.4,0-0.4,0.7-0.2,1.3C129.4,26.6,130.1,27.1,130.3,26.6z"/>
	<path d="M139.7,23.3c0.1-0.5-0.9-2.3-1.4-2.3c-0.2,0.1,0.1,0.9,0.3,1.4C139.1,23.2,139.7,23.7,139.7,23.3z"/>
	<path d="M141.7,27.2c0.1-0.5-0.8-2.3-1.3-2.4c-0.3,0.1,0,0.9,0.2,1.4C141.1,27.1,141.6,27.5,141.7,27.2z"/>
	<path d="M138.5,23.4c0.1-0.4-0.9-2.2-1.4-2.3c-0.3,0.1,0,0.8,0.3,1.4C137.9,23.3,138.4,23.8,138.5,23.4z"/>
	<path d="M140.4,27.3c0.2-0.5-0.7-2.3-1.3-2.4c-0.3,0.1-0.1,0.9,0.2,1.4C139.7,27.2,140.2,27.7,140.4,27.3z"/>
	<path d="M137.2,23.5c0.2-0.5-0.7-2.2-1.3-2.3c-0.3,0.1,0,0.8,0.2,1.3C136.5,23.4,137,23.9,137.2,23.5z"/>
	<path d="M137.7,25c-0.3,0.1-0.1,0.9,0.1,1.4c0.4,0.9,1,1.4,1.1,1C139.1,26.8,138.3,25.1,137.7,25z"/>
	<path d="M119.7,3.9c-0.2,0,0.1,0.6,0.3,1c0.4,0.7,0.8,1.1,0.9,0.9C120.9,5.5,120,4,119.7,3.9z"/>
	<path d="M121.3,7c-0.2,0,0,0.6,0.2,1c0.4,0.7,0.8,1.2,0.9,0.9C122.6,8.6,121.8,7.1,121.3,7z"/>
	<path d="M118.8,3.8c-0.2,0,0,0.6,0.2,1c0.4,0.7,0.8,1.1,0.8,0.9C120,5.3,119.2,3.9,118.8,3.8z"/>
	<path d="M120.3,6.8c-0.2,0-0.1,0.6,0.1,1c0.3,0.7,0.8,1.2,0.9,0.9C121.4,8.3,120.7,6.9,120.3,6.8z"/>
	<path d="M123.7,4.4c-0.1,0,0.3,0.7,0.7,1.1c0.5,0.6,1,1.1,1,0.9C125.4,6,124,4.5,123.7,4.4z"/>
	<path d="M126.2,7.6c-0.2,0.1,0.2,0.7,0.5,1.1c0.5,0.7,1,1.1,1,0.9C127.9,9.3,126.6,7.6,126.2,7.6z"/>
	<path d="M123,4.3c-0.2,0.1,0.3,0.7,0.6,1.1c0.5,0.7,0.9,1,1,0.9C124.6,6,123.3,4.4,123,4.3z"/>
	<path d="M125.3,7.5c-0.2,0,0.2,0.7,0.5,1.1c0.5,0.7,0.9,1.1,1,0.9C126.9,9.2,125.7,7.6,125.3,7.5z"/>
	<path d="M122.2,4.3c-0.2,0,0.2,0.6,0.5,1c0.5,0.7,0.9,1.1,0.9,0.9C123.7,6,122.5,4.4,122.2,4.3z"/>
	<path d="M124.4,7.5c-0.2,0,0.1,0.6,0.4,1.1c0.5,0.7,0.9,1.2,0.9,0.9C125.9,9.1,124.8,7.6,124.4,7.5z"/>
	<path d="M121.4,4.2c-0.2,0,0.2,0.6,0.5,1c0.4,0.6,0.8,1.1,0.9,0.9C122.9,5.9,121.8,4.3,121.4,4.2z"/>
	<path d="M123.4,7.3c-0.2,0,0.1,0.6,0.3,1.1c0.4,0.7,0.9,1.2,1,0.9C124.8,9,123.8,7.5,123.4,7.3z"/>
	<path d="M120.5,4.1c-0.2,0,0.1,0.6,0.4,1c0.4,0.6,0.9,1.1,0.9,0.8C121.9,5.6,120.9,4.2,120.5,4.1z"/>
	<path d="M122.4,7.2c-0.2,0,0,0.6,0.3,1.1c0.4,0.7,0.8,1.2,0.9,0.9C123.8,8.8,122.8,7.3,122.4,7.2z"/>
	<path d="M125.7,4.3c0,0.1,0.6,0.7,0.8,1.1c0.6,0.6,1,0.9,1.1,0.8C127.6,6,126,4.3,125.7,4.3L125.7,4.3z"/>
	<path d="M129.3,8.6c0.5,0.6,1,1,1.1,0.9c0.1-0.3-1.5-2-1.8-2C128.5,7.5,129,8.2,129.3,8.6z"/>
	<path d="M125.9,5.5c0.6,0.6,1,1,1.1,0.9c0-0.2-1.5-1.9-1.9-2C125,4.5,125.6,5.1,125.9,5.5z"/>
	<path d="M128.5,8.7c0.6,0.7,1.1,1.1,1.1,0.9c0-0.4-1.4-2-1.7-2C127.7,7.6,128.2,8.3,128.5,8.7z"/>
	<path d="M125.1,5.5c0.6,0.7,1.1,1.1,1,0.9c0-0.3-1.4-1.9-1.7-1.9C124.3,4.4,124.8,5.1,125.1,5.5z"/>
	<path d="M127.1,7.6c-0.2,0.1,0.3,0.7,0.6,1.2c0.5,0.7,1,1.1,1,0.9C128.8,9.3,127.5,7.6,127.1,7.6z"/>
	<path d="M117.3,0.1L117.3,0.1L117.1,0C117.2,0.1,117.3,0.2,117.3,0.1z"/>
	<path d="M117.9,1.2c-0.1,0,0.2,0.6,0.4,1c0.4,0.6,0.8,1,0.8,0.8C119.2,2.7,118.3,1.3,117.9,1.2z"/>
	<path d="M117.2,1c-0.2,0,0.1,0.6,0.3,0.9c0.4,0.6,0.8,1,0.8,0.9C118.4,2.5,117.6,1.1,117.2,1z"/>
	<path d="M120.1,0.5c0,0-0.1-0.2-0.3-0.4h-0.2C119.8,0.3,120.1,0.5,120.1,0.5z"/>
	<path d="M121.1,1.5c0,0.1,0.5,0.7,0.8,1.1c0.5,0.6,1,0.9,1,0.8C123,3.2,121.5,1.6,121.1,1.5L121.1,1.5z"/>
	<path d="M119.6,0.5c0,0-0.1-0.2-0.3-0.4H119C119.3,0.3,119.6,0.5,119.6,0.5z"/>
	<path d="M120.5,1.5c0,0.1,0.4,0.7,0.7,1c0.5,0.6,0.9,1,0.9,0.9C122.2,3.1,120.9,1.6,120.5,1.5L120.5,1.5z"/>
	<path d="M119.1,0.4c0,0-0.1-0.2-0.2-0.3h-0.3C118.8,0.2,119,0.4,119.1,0.4z"/>
	<path d="M120,1.5L120,1.5c-0.1,0.1,0.4,0.7,0.6,1c0.5,0.6,0.9,1,0.9,0.8C121.5,3,120.3,1.5,120,1.5z"/>
	<path d="M118.5,0.3c0,0,0-0.2-0.1-0.3h-0.2C118.3,0.2,118.4,0.4,118.5,0.3z"/>
	<path d="M119.3,1.4c-0.1,0,0.3,0.6,0.5,1c0.5,0.6,0.9,1,0.9,0.8C120.8,2.9,119.6,1.5,119.3,1.4z"/>
	<path d="M117.9,0.2c0,0,0-0.1-0.1-0.2h-0.2C117.8,0.2,117.9,0.3,117.9,0.2z"/>
	<path d="M118.6,1.3c-0.1,0,0.2,0.6,0.5,1c0.4,0.6,0.8,1,0.8,0.8C120,2.9,119,1.4,118.6,1.3z"/>
	<path d="M121.6,0.4c0,0-0.1-0.2-0.3-0.3H121C121.2,0.2,121.5,0.4,121.6,0.4z"/>
	<path d="M122.7,1.5c0.1,0.2,0.9,1,1,1c0.1,0.1,0.9,0.9,1.1,0.8C124.8,3.1,123,1.5,122.7,1.5L122.7,1.5z"/>
	<path d="M121.1,0.5L121.1,0.5c0-0.1-0.2-0.3-0.3-0.4h-0.2C120.8,0.2,121,0.4,121.1,0.5z"/>
	<path d="M123.1,2.6c0.1,0.1,0.9,0.9,1,0.8c0.1-0.2-1.6-1.8-1.9-1.9C122.2,1.7,123.1,2.6,123.1,2.6z"/>
	<path d="M120.7,0.5L120.7,0.5c0-0.1-0.2-0.3-0.3-0.4h-0.2C120.3,0.3,120.6,0.5,120.7,0.5z"/>
	<path d="M122.5,2.6c0.1,0.1,0.9,0.9,1,0.8c0.1-0.2-1.5-1.8-1.8-1.9C121.7,1.7,122.5,2.6,122.5,2.6z"/>
	<path d="M126.2,4.2c0,0.1,0.6,0.8,0.9,1.1c0.6,0.6,1.1,1,1.1,0.8C128.2,5.9,126.5,4.2,126.2,4.2z"/>
	<path d="M121.9,0.3c0,0-0.1-0.2-0.3-0.3h-0.2C121.7,0.2,121.9,0.3,121.9,0.3z"/>
	<path d="M124.1,2.4c0.1,0.1,1,0.9,1.1,0.8c0-0.2-1.8-1.8-2.1-1.8C123.1,1.5,124,2.3,124.1,2.4z"/>
	<path d="M118.9,14.1c0.3-0.4-0.1-1.8-0.6-2c-0.4-0.1-0.4,0.6-0.3,1C118.1,13.9,118.6,14.4,118.9,14.1z"/>
	<path d="M116.7,11.6c-0.4-0.1-0.5,0.5-0.4,1c0.1,0.8,0.6,1.4,0.9,1C117.6,13.2,117.3,11.9,116.7,11.6z"/>
	<path d="M115.1,11.2c-0.4-0.1-0.5,0.5-0.5,0.9c0.1,0.8,0.6,1.4,0.9,1C115.9,12.6,115.7,11.4,115.1,11.2z"/>
	<path d="M113.8,12.5c0.4-0.4,0.2-1.7-0.3-1.9c-0.4-0.1-0.5,0.5-0.5,0.9C113,12.3,113.5,12.9,113.8,12.5z"/>
	<path d="M112.1,11.9c0.4-0.4,0.3-1.6-0.2-1.8c-0.4-0.1-0.6,0.4-0.6,0.9C111.2,11.8,111.7,12.3,112.1,11.9z"/>
	<path d="M110.2,9.5c-0.4-0.1-0.6,0.4-0.7,0.9c-0.1,0.7,0.4,1.3,0.8,0.9C110.8,10.9,110.8,9.7,110.2,9.5z"/>
	<path d="M107.8,9.7c-0.1,0.7,0.3,1.3,0.8,1s0.5-1.5,0-1.8C108.2,8.8,107.9,9.3,107.8,9.7z"/>
	<path d="M106.1,9c-0.2,0.7,0.2,1.3,0.8,1c0.5-0.3,0.6-1.5,0.1-1.7S106.2,8.6,106.1,9z"/>
	<path d="M117.6,8.9c-0.3-0.1-0.3,0.5-0.2,1c0.2,0.8,0.7,1.3,0.9,0.9C118.5,10.4,118.1,9.1,117.6,8.9z"/>
	<path d="M116.2,8.5c-0.3-0.1-0.3,0.5-0.3,0.9c0.1,0.7,0.6,1.3,0.8,0.9C117.1,10,116.7,8.7,116.2,8.5z"/>
	<path d="M121.1,13.9c0.3,0.8,0.8,1.4,1,1s-0.3-1.8-0.8-2C120.9,12.8,121,13.4,121.1,13.9z"/>
	<path d="M120.5,14.5c0.3-0.4-0.1-1.8-0.7-2c-0.4-0.1-0.4,0.6-0.2,1.1C119.8,14.3,120.3,14.9,120.5,14.5z"/>
	<path d="M119.4,17.5c0.4-0.4,0.1-1.9-0.6-2.1c-0.4-0.1-0.5,0.6-0.4,1C118.6,17.3,119.1,17.9,119.4,17.5z"/>
	<path d="M117.1,14.9c-0.4-0.1-0.6,0.5-0.5,1c0.1,0.9,0.7,1.5,1,1C117.9,16.5,117.7,15.2,117.1,14.9z"/>
	<path d="M115.3,14.4c-0.4-0.1-0.6,0.5-0.6,1c0.1,0.8,0.6,1.5,1,1C116.1,15.9,115.9,14.6,115.3,14.4z"/>
	<path d="M113.8,15.7c0.4-0.4,0.3-1.7-0.3-1.9c-0.4-0.1-0.6,0.5-0.6,0.9C112.8,15.6,113.4,16.2,113.8,15.7z"/>
	<path d="M110.9,14.1c-0.1,0.8,0.5,1.4,0.9,1c0.5-0.4,0.4-1.7-0.2-1.9C111.2,13.1,111,13.6,110.9,14.1z"/>
	<path d="M121.2,18c0.3-0.4-0.1-1.9-0.7-2.1c-0.4-0.1-0.4,0.6-0.3,1C120.4,17.8,120.9,18.3,121.2,18z"/>
	<path d="M120.2,10.6c0.2,0.8,0.8,1.3,0.9,1c0.2-0.4-0.3-1.8-0.8-2C120,9.5,120,10.1,120.2,10.6z"/>
	<path d="M118.8,10.2c0.2,0.8,0.7,1.3,0.9,0.9c0.2-0.4-0.3-1.8-0.8-1.9C118.6,9.2,118.7,9.8,118.8,10.2z"/>
	<path d="M114.8,8.1c-0.3-0.1-0.4,0.5-0.4,0.9c0.1,0.7,0.6,1.3,0.8,0.9C115.6,9.6,115.3,8.3,114.8,8.1z"/>
	<path d="M113.4,7.6c-0.3-0.1-0.5,0.4-0.4,0.9c0.1,0.7,0.5,1.2,0.8,0.9C114.1,9.1,113.9,7.8,113.4,7.6z"/>
	<path d="M112.2,8.9c0.4-0.3,0.3-1.6-0.2-1.8c-0.3-0.1-0.5,0.4-0.5,0.8C111.5,8.7,111.9,9.2,112.2,8.9z"/>
	<path d="M110.6,8.4c0.4-0.3,0.4-1.5-0.1-1.8c-0.4-0.1-0.5,0.4-0.6,0.8C109.9,8.1,110.3,8.6,110.6,8.4z"/>
	<path d="M109.1,6.1c-0.4-0.1-0.6,0.4-0.7,0.8c-0.1,0.7,0.3,1.2,0.6,0.9C109.5,7.5,109.6,6.3,109.1,6.1z"/>
	<path d="M107.6,5.5c-0.4-0.1-0.6,0.4-0.7,0.7c-0.2,0.7,0.2,1.2,0.6,0.9C108,6.9,108.1,5.8,107.6,5.5z"/>
	<path d="M109.9,1.1c-0.3-0.1-0.4,0.4-0.5,0.7c-0.1,0.7,0.2,1,0.5,0.8C110.2,2.3,110.2,1.3,109.9,1.1z"/>
	<path d="M108.9,4.3c-0.1,0.6,0.2,1.1,0.5,0.9c0.4-0.3,0.4-1.4,0-1.6C109.2,3.5,109,3.9,108.9,4.3z"/>
	<path d="M108.8,0.7c-0.3-0.1-0.5,0.3-0.5,0.7c-0.1,0.6,0.1,1,0.4,0.8C109.1,1.9,109.2,0.8,108.8,0.7z"/>
	<path d="M107.6,3.8c-0.1,0.6,0.2,1.1,0.5,0.8c0.4-0.3,0.6-1.3,0.1-1.5C107.9,3,107.7,3.4,107.6,3.8z"/>
	<path d="M114.9,3.7c0.2,0.7,0.5,1.1,0.7,0.9c0.2-0.3-0.2-1.6-0.6-1.7C114.7,2.8,114.8,3.3,114.9,3.7z"/>
	<path d="M115.7,5.6c-0.3,0-0.3,0.5-0.2,0.9c0.2,0.7,0.6,1.2,0.8,0.9C116.5,7,116.1,5.8,115.7,5.6z"/>
	<path d="M113.8,3.3c0.1,0.7,0.5,1.1,0.6,0.9c0.2-0.3-0.1-1.5-0.5-1.7C113.7,2.5,113.7,3,113.8,3.3z"/>
	<path d="M114.5,5.3c-0.3-0.1-0.3,0.5-0.3,0.9c0.1,0.7,0.5,1.2,0.8,0.9C115.2,6.7,114.9,5.5,114.5,5.3z"/>
	<path d="M112.9,2.2c-0.2,0-0.3,0.4-0.2,0.8c0.1,0.7,0.4,1.1,0.6,0.9C113.6,3.5,113.3,2.3,112.9,2.2z"/>
	<path d="M113.2,4.9c-0.3-0.1-0.4,0.5-0.3,0.9c0.1,0.7,0.5,1.2,0.7,0.9C113.9,6.2,113.7,5.1,113.2,4.9z"/>
	<path d="M112.2,3.4c0.3-0.3,0.1-1.4-0.3-1.6c-0.2-0.1-0.3,0.4-0.3,0.8C111.6,3.3,112,3.7,112.2,3.4z"/>
	<path d="M112.2,6.1c0.3-0.3,0.2-1.5-0.2-1.7c-0.3,0-0.4,0.5-0.4,0.9C111.6,5.9,112,6.4,112.2,6.1z"/>
	<path d="M111,3c0.3-0.3,0.2-1.4-0.1-1.6c-0.2-0.1-0.4,0.4-0.4,0.7C110.5,2.9,110.8,3.2,111,3z"/>
	<path d="M110.3,4.8c-0.1,0.7,0.3,1.2,0.6,0.9c0.3-0.3,0.3-1.4-0.1-1.6C110.4,3.9,110.3,4.4,110.3,4.8z"/>
	<path d="M117.9,3.6c-0.2,0,0,0.6,0.2,0.9c0.3,0.7,0.7,1.1,0.8,0.9C119,5.1,118.2,3.7,117.9,3.6z"/>
	<path d="M119.2,6.6c-0.2,0-0.1,0.5,0.1,1c0.3,0.7,0.7,1.2,0.8,0.9C120.3,8.1,119.6,6.7,119.2,6.6z"/>
	<path d="M116.9,3.3c-0.2,0-0.1,0.6,0.1,0.9c0.2,0.7,0.7,1.1,0.8,0.9C117.9,4.8,117.3,3.5,116.9,3.3z"/>
	<path d="M118.1,6.3c-0.3-0.1-0.2,0.5-0.1,0.9c0.3,0.7,0.7,1.2,0.8,0.9C119,7.8,118.5,6.4,118.1,6.3z"/>
	<path d="M116,3.1c-0.2,0-0.1,0.5,0,0.9c0.2,0.6,0.6,1.1,0.7,0.8C116.8,4.5,116.3,3.2,116,3.1z"/>
	<path d="M116.8,6.9c0.2,0.7,0.6,1.2,0.8,0.9c0.2-0.3-0.3-1.7-0.7-1.9C116.6,5.9,116.7,6.5,116.8,6.9z"/>
	<path d="M110.1,0.3c0.1-0.1,0.1-0.1,0.1-0.2h-0.5C109.8,0.3,110,0.4,110.1,0.3z"/>
	<path d="M114.2,0.3c-0.2,0-0.1,0.5,0,0.8c0.2,0.6,0.5,1,0.6,0.8C115,1.6,114.5,0.4,114.2,0.3z"/>
	<path d="M113.4,0.8c0.1,0.6,0.4,1,0.5,0.8c0.2-0.3-0.2-1.4-0.5-1.6h-0.1C113.2,0.1,113.2,0.5,113.4,0.8z"/>
	<path d="M112.4,0.5c0.1,0.6,0.4,1,0.5,0.8s0-0.9-0.2-1.3h-0.4C112.4,0.2,112.4,0.4,112.4,0.5z"/>
	<path d="M111.6,0.2c0,0.6,0.3,0.9,0.5,0.7c0.1-0.1,0.1-0.6,0-0.9h-0.5C111.5,0.1,111.5,0.2,111.6,0.2z"/>
	<path d="M111.1,0.6c0.1-0.1,0.2-0.3,0.1-0.6h-0.6C110.7,0.5,110.9,0.8,111.1,0.6z"/>
	<path d="M116.5,0.9c-0.2,0,0.1,0.6,0.3,0.9c0.3,0.6,0.7,1,0.8,0.8C117.6,2.3,116.8,1,116.5,0.9z"/>
	<path d="M115.8,0.7c-0.2,0,0,0.5,0.2,0.9c0.3,0.6,0.6,1,0.7,0.8C116.7,2.1,116.1,0.8,115.8,0.7z"/>
	<path d="M115,0.5c-0.2,0,0,0.5,0.1,0.9c0.2,0.6,0.6,1,0.7,0.8C115.9,1.9,115.3,0.6,115,0.5z"/>
	<path d="M102.5,7.5c-0.2,0.7,0.1,1.2,0.6,1c0.6-0.2,0.9-1.4,0.4-1.7C103.1,6.7,102.7,7.1,102.5,7.5z"/>
	<path d="M101.8,6.1c-0.4-0.2-0.9,0.3-1,0.6c-0.3,0.6,0,1.2,0.5,1C102,7.5,102.4,6.4,101.8,6.1z"/>
	<path d="M99.6,6.9c0.6-0.2,1.2-1.3,0.6-1.6c-0.4-0.2-0.9,0.3-1.1,0.6C98.7,6.5,99,7.1,99.6,6.9z"/>
	<path d="M98.5,4.5c-0.4-0.2-0.9,0.2-1.2,0.5c-0.4,0.6-0.2,1.1,0.4,1C98.4,5.9,99.1,4.9,98.5,4.5L98.5,4.5z"/>
	<path d="M95.7,4.2c-0.4,0.5-0.3,1,0.3,1c0.7-0.1,1.4-1.1,1-1.5l0,0C96.5,3.5,96,3.9,95.7,4.2z"/>
	<path d="M95.3,2.9c-0.4-0.2-1,0.2-1.3,0.5c-0.4,0.5-0.4,1,0.2,1C94.9,4.3,95.8,3.3,95.3,2.9L95.3,2.9z"/>
	<path d="M93.8,2c-0.4-0.2-1,0.2-1.3,0.4c-0.5,0.5-0.4,0.9,0.1,0.9C93.3,3.4,94.2,2.5,93.8,2L93.8,2z"/>
	<path d="M92.2,1.1c-0.4-0.2-1.1,0.1-1.4,0.4c-0.5,0.4-0.5,0.9,0,0.9C91.5,2.6,92.7,1.6,92.2,1.1L92.2,1.1z"/>
	<path d="M91.6,4c-0.5-0.2-1.1,0.2-1.4,0.5c-0.5,0.5-0.4,1,0.2,1C91.1,5.5,92.1,4.5,91.6,4L91.6,4z"/>
	<path d="M88.5,4.4c0.8,0,1.8-0.9,1.4-1.4l-0.1-0.1c-0.5-0.2-1.1,0.1-1.5,0.4C87.9,3.9,87.9,4.4,88.5,4.4z"/>
	<path d="M104.6,4.3c-0.4-0.1-0.7,0.3-0.9,0.7c-0.2,0.6,0,1.1,0.5,0.9C104.8,5.6,105.1,4.5,104.6,4.3z"/>
	<path d="M103.2,3.6c-0.4-0.1-0.8,0.3-1,0.6c-0.3,0.6-0.1,1.1,0.4,1C103.2,5,103.7,3.9,103.2,3.6L103.2,3.6z"/>
	<path d="M105.1,7.5c-0.4-0.1-0.8,0.3-0.9,0.7c-0.2,0.7,0.1,1.2,0.6,1C105.4,9,105.7,7.8,105.1,7.5z"/>
	<path d="M105.3,5.6c-0.2,0.7,0.1,1.2,0.5,0.9c0.5-0.3,0.8-1.4,0.3-1.6C105.7,4.8,105.4,5.2,105.3,5.6z"/>
	<path d="M101.1,4.4c0.6-0.1,1.2-1.2,0.7-1.4V2.9c-0.4-0.1-0.8,0.2-1,0.6C100.4,4,100.6,4.5,101.1,4.4z"/>
	<path d="M100.3,2.2c-0.4-0.1-0.9,0.2-1.1,0.5c-0.4,0.5-0.2,1,0.3,0.9C100.2,3.6,100.7,2.6,100.3,2.2L100.3,2.2z"/>
	<path d="M98.9,1.5C98.5,1.4,98,1.7,97.8,2c-0.4,0.5-0.3,0.9,0.1,0.9C98.6,2.9,99.3,1.9,98.9,1.5L98.9,1.5z"/>
	<path d="M97.5,0.8c-0.4-0.2-0.9,0.2-1.2,0.5c-0.4,0.4-0.4,0.9,0.1,0.9C97.1,2.1,97.9,1.1,97.5,0.8L97.5,0.8z"/>
	<path d="M94.9,0.5c-0.5,0.4-0.5,0.8,0,0.8c0.7,0.1,1.7-0.8,1.4-1.2L96.2,0c0,0-0.1,0-0.2,0h-0.3C95.4,0.1,95.1,0.3,94.9,0.5z"/>
	<path d="M93.3,0.5c0.4,0.1,0.8-0.2,1.2-0.4h-1.4C93,0.3,93.1,0.5,93.3,0.5z"/>
	<path d="M105.1,0.6c0.3-0.1,0.5-0.3,0.6-0.6h-0.8C104.7,0.4,104.8,0.7,105.1,0.6z"/>
	<path d="M104.4,1.5c-0.3-0.1-0.7,0.3-0.9,0.6c-0.3,0.5-0.1,1,0.3,0.8C104.4,2.7,104.9,1.7,104.4,1.5z"/>
	<path d="M103.9,0.1c0.1,0,0.1,0,0.2-0.1h-0.4C103.7,0.1,103.8,0.1,103.9,0.1z"/>
	<path d="M103.2,0.9c-0.3-0.1-0.7,0.2-0.9,0.5c-0.3,0.5-0.2,1,0.3,0.8C103.1,2.1,103.5,1.1,103.2,0.9L103.2,0.9z"/>
	<path d="M101.9,0.3c-0.3-0.1-0.8,0.2-1,0.5c-0.3,0.4-0.3,0.8,0.2,0.8C101.7,1.5,102.3,0.5,101.9,0.3L101.9,0.3z"/>
	<path d="M99.6,0.1c-0.4,0.4-0.4,0.8,0.1,0.8c0.4,0,0.9-0.5,1.1-0.8H99.6C99.7,0.1,99.6,0.1,99.6,0.1z"/>
	<path d="M98.3,0.2c0.2,0,0.4-0.1,0.6-0.2h-0.8C98.1,0.1,98.2,0.2,98.3,0.2z"/>
	<path d="M107.7,0.2c-0.2-0.1-0.5,0.3-0.6,0.6c-0.2,0.6,0,0.9,0.3,0.8C107.9,1.5,108.1,0.4,107.7,0.2z"/>
	<path d="M106.3,3.2c-0.2,0.6,0.1,1.1,0.5,0.8c0.4-0.2,0.7-1.3,0.3-1.5C106.7,2.4,106.4,2.9,106.3,3.2z"/>
	<path d="M106,0.4c-0.2,0.5,0,0.9,0.3,0.8c0.3-0.1,0.6-0.8,0.6-1.1h-0.6C106.1,0.1,106.1,0.3,106,0.4z"/>
	<path d="M104.9,2.6c-0.2,0.5-0.1,1,0.4,0.9c0.5-0.2,0.9-1.3,0.4-1.5C105.4,1.9,105.1,2.3,104.9,2.6z"/>
	<path d="M107.8,19.7c-0.1,0.9,0.5,1.5,1,1.1c0.6-0.4,0.6-1.7-0.1-2C108.2,18.6,107.9,19.2,107.8,19.7z"/>
	<path d="M105.5,18.8c-0.2,0.9,0.4,1.6,1,1.2c0.6-0.4,0.7-1.7,0-2C106,17.8,105.6,18.3,105.5,18.8z"/>
	<path d="M103.2,17.9c-0.2,0.9,0.4,1.6,1,1.2c0.7-0.4,0.9-1.7,0.1-2C103.8,16.9,103.3,17.4,103.2,17.9z"/>
	<path d="M109.3,15.5c-0.5-0.2-0.8,0.4-0.9,0.9c-0.1,0.8,0.5,1.5,1,1.1C110,17,110,15.7,109.3,15.5z"/>
	<path d="M106.4,15.5c-0.2,0.8,0.4,1.5,0.9,1.1c0.6-0.4,0.7-1.6,0-2C106.8,14.5,106.5,15.1,106.4,15.5z"/>
	<path d="M105.3,13.9c-0.5-0.2-0.9,0.4-1,0.8c-0.2,0.8,0.3,1.5,0.9,1.1C105.8,15.5,105.9,14.2,105.3,13.9z"/>
	<path d="M107.9,11.7c-0.4-0.1-0.8,0.4-0.8,0.8c-0.2,0.8,0.4,1.4,0.8,1C108.5,13.2,108.6,12,107.9,11.7z"/>
	<path d="M105.2,11.8c-0.2,0.8,0.3,1.4,0.8,1.1c0.5-0.3,0.7-1.6,0.1-1.8C105.6,10.9,105.3,11.4,105.2,11.8z"/>
	<path d="M109,13.3c-0.1,0.8,0.4,1.4,0.9,1s0.5-1.6-0.1-1.9C109.3,12.3,109.1,12.9,109,13.3z"/>
	<path d="M98.5,15.9c-0.3,0.8,0.2,1.5,0.9,1.2c0.7-0.3,1-1.6,0.3-2C99.2,14.9,98.7,15.5,98.5,15.9z"/>
	<path d="M97.5,14.1c-0.6-0.2-1.1,0.3-1.3,0.7c-0.3,0.8,0.2,1.5,0.9,1.2C97.9,15.7,98.3,14.5,97.5,14.1z"/>
	<path d="M94,13.8c-0.4,0.7,0,1.4,0.7,1.2c0.8-0.2,1.3-1.5,0.7-1.9L95.3,13C94.8,12.9,94.2,13.4,94,13.8z"/>
	<path d="M93.1,12.1c-0.6-0.2-1.2,0.2-1.4,0.6c-0.4,0.7-0.1,1.4,0.7,1.2C93.3,13.7,93.8,12.5,93.1,12.1L93.1,12.1z"/>
	<path d="M90.1,12.8c0.9-0.2,1.5-1.3,0.9-1.8h-0.1c-0.6-0.3-1.2,0.2-1.5,0.6C89.1,12.2,89.4,12.9,90.1,12.8z"/>
	<path d="M87.9,11.6c0.9-0.2,1.6-1.3,1-1.7h-0.1c-0.5-0.3-1.2,0.2-1.5,0.6C86.8,11.1,87.1,11.8,87.9,11.6z"/>
	<path d="M86.7,8.7c-0.5-0.3-1.2,0.1-1.5,0.5c-0.5,0.6-0.3,1.3,0.4,1.2C86.5,10.4,87.4,9.2,86.7,8.7L86.7,8.7z"/>
	<path d="M84.6,7.5c-0.5-0.3-1.2,0.1-1.6,0.4c-0.6,0.6-0.4,1.2,0.4,1.2C84.4,9.2,85.3,8,84.6,7.5L84.6,7.5z"/>
	<path d="M100,12.9c-0.3,0.8,0.2,1.4,0.8,1.1c0.7-0.3,1-1.5,0.3-1.9C100.6,12,100.1,12.4,100,12.9z"/>
	<path d="M97.9,11.9c-0.3,0.7,0.1,1.4,0.7,1.2c0.7-0.2,1.2-1.5,0.5-1.9C98.5,11.1,98.1,11.5,97.9,11.9z"/>
	<path d="M102,16.1c-0.6-0.2-1,0.4-1.1,0.8c-0.3,0.9,0.3,1.5,0.9,1.2C102.4,17.7,102.7,16.4,102,16.1z"/>
	<path d="M102,13.8c-0.2,0.8,0.3,1.5,0.9,1.1s0.9-1.6,0.2-1.9C102.6,12.8,102.2,13.3,102,13.8z"/>
	<path d="M95.8,11c-0.4,0.7,0,1.3,0.7,1.2c0.8-0.2,1.3-1.4,0.6-1.8C96.5,10.1,96,10.6,95.8,11z"/>
	<path d="M95,9.3c-0.5-0.2-1.1,0.2-1.3,0.6c-0.4,0.7-0.1,1.3,0.6,1.1C95.1,10.9,95.6,9.7,95,9.3L95,9.3z"/>
	<path d="M92.2,10c0.8-0.2,1.4-1.3,0.9-1.7H93c-0.5-0.2-1.1,0.2-1.4,0.6C91.2,9.6,91.5,10.2,92.2,10z"/>
	<path d="M89.6,7.8C89.1,8.4,89.4,9,90,8.9c0.9-0.1,1.6-1.2,1.1-1.6H91C90.6,7.1,89.9,7.5,89.6,7.8z"/>
	<path d="M89.2,6.2C88.7,6,88,6.4,87.7,6.7c-0.5,0.5-0.3,1.2,0.4,1.1C88.9,7.8,89.7,6.7,89.2,6.2L89.2,6.2z"/>
	<path d="M85.9,6.7c0.9,0.1,1.9-1,1.4-1.5l-0.1-0.1c-0.5-0.2-1.2,0.1-1.5,0.4C85.2,6.1,85.3,6.7,85.9,6.7z"/>
	<path d="M107.3,25.9c-0.6-0.2-1,0.4-1.1,0.9c-0.2,1,0.6,1.7,1.3,1.2C108.1,27.5,108.1,26.2,107.3,25.9z"/>
	<path d="M103.5,25.8c-0.2,1,0.6,1.7,1.3,1.2c0.6-0.5,0.7-1.8-0.1-2.1C104.1,24.7,103.6,25.3,103.5,25.8z"/>
	<path d="M102.1,26c0.7-0.4,0.8-1.7,0-2.1c-0.7-0.2-1.1,0.4-1.2,0.9C100.6,25.7,101.4,26.4,102.1,26z"/>
	<path d="M108,22.3c-0.6-0.2-1,0.4-1,0.9c-0.2,1,0.6,1.7,1.2,1.1C108.8,23.9,108.8,22.6,108,22.3z"/>
	<path d="M105.7,23.6c0.7-0.4,0.8-1.8,0-2.1c-0.6-0.2-1,0.4-1.1,0.9C104.4,23.2,105,23.9,105.7,23.6z"/>
	<path d="M102.1,21.3c-0.2,0.9,0.4,1.6,1.1,1.2c0.7-0.4,0.9-1.7,0.1-2.1C102.6,20.3,102.2,20.9,102.1,21.3z"/>
	<path d="M96.8,21.7c-0.7-0.2-1.2,0.3-1.4,0.8c-0.3,0.9,0.3,1.6,1.1,1.3C97.3,23.4,97.7,22.1,96.8,21.7z"/>
	<path d="M92.8,21.3c-0.4,0.9,0.2,1.6,1,1.3c0.8-0.3,1.2-1.7,0.4-2.1C93.6,20.3,93,20.8,92.8,21.3z"/>
	<path d="M91.7,19.3c-0.6-0.2-1.3,0.3-1.5,0.7c-0.4,0.8,0.2,1.6,1,1.3C92.1,21.1,92.5,19.8,91.7,19.3z"/>
	<path d="M89.1,18.1c-0.6-0.3-1.3,0.2-1.5,0.7c-0.5,0.8,0.1,1.6,0.9,1.4C89.4,19.8,89.9,18.6,89.1,18.1z"/>
	<path d="M86.6,16.8c-0.7-0.3-1.3,0.2-1.6,0.6c-0.5,0.8,0,1.5,0.9,1.3C86.9,18.6,87.4,17.3,86.6,16.8z"/>
	<path d="M84.1,15.5c-0.6-0.3-1.3,0.2-1.6,0.6c-0.5,0.7-0.1,1.5,0.7,1.4C84.2,17.3,84.9,16.1,84.1,15.5L84.1,15.5z"/>
	<path d="M80.7,16.1c1-0.1,1.7-1.4,1.1-1.9h-0.1c-0.6-0.3-1.3,0.1-1.6,0.5C79.5,15.5,79.9,16.2,80.7,16.1z"/>
	<path d="M77.6,13.3c-0.6,0.7-0.2,1.5,0.6,1.4c1-0.1,1.8-1.3,1.1-1.8l-0.1-0.1C78.7,12.5,77.9,12.9,77.6,13.3z"/>
	<path d="M98.3,18.4c-0.6-0.2-1.1,0.3-1.3,0.8c-0.3,0.8,0.3,1.6,1,1.2C98.8,20.1,99.1,18.8,98.3,18.4z"/>
	<path d="M95.9,17.3c-0.6-0.2-1.2,0.3-1.3,0.7c-0.4,0.8,0.2,1.5,0.9,1.2C96.3,19,96.7,17.8,95.9,17.3z"/>
	<path d="M98.1,23.6c-0.3,0.9,0.3,1.7,1.1,1.3c0.8-0.4,1-1.7,0.2-2.2C98.7,22.5,98.2,23.1,98.1,23.6z"/>
	<path d="M99.4,20.2c-0.3,0.9,0.3,1.6,1,1.2c0.8-0.4,1-1.7,0.2-2.1C100.1,19.2,99.6,19.8,99.4,20.2z"/>
	<path d="M93.5,16.2c-0.6-0.2-1.2,0.3-1.4,0.7c-0.4,0.8,0.1,1.6,0.9,1.3C93.8,17.9,94.3,16.7,93.5,16.2z"/>
	<path d="M91.1,15.1c-0.6-0.2-1.2,0.2-1.4,0.6c-0.5,0.8,0.1,1.6,0.9,1.3C91.3,16.7,91.8,15.5,91.1,15.1z"/>
	<path d="M88,15.8c0.9-0.2,1.5-1.4,0.9-1.8l-0.1-0.1c-0.6-0.3-1.3,0.2-1.5,0.6C86.8,15.2,87.2,16,88,15.8z"/>
	<path d="M85.5,14.5c1-0.2,1.6-1.4,1-1.8l-0.1-0.1c-0.6-0.2-1.3,0.2-1.6,0.6C84.4,13.9,84.7,14.7,85.5,14.5z"/>
	<path d="M84.1,11.5c-0.6-0.3-1.3,0.1-1.6,0.5c-0.5,0.7-0.2,1.4,0.6,1.3C84.1,13.1,84.8,12,84.1,11.5L84.1,11.5z"/>
	<path d="M80.3,10.6c-0.6,0.6-0.3,1.3,0.4,1.3c1,0,1.8-1.1,1.3-1.7l-0.1-0.1C81.3,9.9,80.6,10.3,80.3,10.6z"/>
	<path d="M90.8,0.3c-0.4-0.2-1.1,0.1-1.5,0.3c-0.5,0.4-0.5,0.9-0.1,0.9C89.9,1.6,91.2,0.7,90.8,0.3L90.8,0.3z"/>
	<path d="M88.2,2c-0.5-0.2-1.2,0.1-1.5,0.4c-0.5,0.4-0.5,1,0.1,1C87.6,3.5,88.6,2.6,88.2,2L88.2,2z"/>
	<path d="M82.7,6.3c-0.5-0.2-1.2,0.1-1.6,0.4C80.5,7.3,80.6,8,81.3,8C82.3,8,83.3,6.9,82.7,6.3L82.7,6.3z"/>
	<path d="M85.5,4.1c-0.5-0.2-1.2,0.1-1.6,0.4C83.3,5,83.4,5.6,84,5.6C84.9,5.6,85.9,4.7,85.5,4.1L85.5,4.1z"/>
	<path d="M83.4,0.3c-0.6,0.4-0.7,0.9-0.2,0.9C84,1.3,85.3,0.5,85,0l0,0h-1C83.8,0.1,83.6,0.2,83.4,0.3z"/>
	<path d="M81.9,1.9c-0.4-0.2-1.2,0.1-1.6,0.4c-0.6,0.4-0.7,0.9-0.2,1C81,3.4,82.4,2.4,81.9,1.9L81.9,1.9z"/>
	<path d="M87.6,0.6c0.5,0.1,1.1-0.2,1.5-0.6h-1.7C87.2,0.3,87.3,0.6,87.6,0.6z"/>
	<path d="M83.6,3c-0.4-0.3-1.2,0.1-1.6,0.4c-0.6,0.4-0.6,1,0,1.1C82.8,4.6,84,3.6,83.6,3L83.6,3z"/>
	<path d="M78.1,9.4c-0.6,0.6-0.4,1.3,0.4,1.3c0.9,0,1.9-1.1,1.4-1.6L79.8,9C79.2,8.6,78.5,9,78.1,9.4z"/>
	<path d="M105.7,35.5c0.7-0.5,0.7-1.9-0.2-2.3c-0.7-0.2-1.2,0.4-1.3,1C104.1,35.2,104.9,36,105.7,35.5z"/>
	<path d="M102.7,32.2c-0.7-0.2-1.2,0.4-1.3,0.9c-0.2,1,0.6,1.9,1.4,1.4C103.5,34,103.5,32.6,102.7,32.2z"/>
	<path d="M98.3,31.9c-0.3,1,0.6,1.8,1.4,1.4c0.8-0.4,0.9-1.9,0-2.3C99,30.8,98.5,31.4,98.3,31.9z"/>
	<path d="M106.4,29.5c-0.7-0.2-1.1,0.4-1.2,1c-0.2,1,0.6,1.8,1.4,1.3C107.3,31.2,107.3,29.9,106.4,29.5z"/>
	<path d="M103.7,28.5c-0.7-0.2-1.2,0.4-1.3,0.9c-0.2,1,0.6,1.8,1.3,1.3C104.5,30.3,104.6,28.9,103.7,28.5z"/>
	<path d="M99.7,28.3c-0.3,1,0.5,1.8,1.3,1.3c0.7-0.4,0.9-1.8,0-2.2C100.3,27.1,99.8,27.8,99.7,28.3z"/>
	<path d="M92.3,29.4c-0.4,1,0.5,1.8,1.3,1.4s1.1-1.8,0.2-2.2C93.1,28.3,92.5,28.8,92.3,29.4z"/>
	<path d="M89.4,28c-0.4,1,0.4,1.8,1.3,1.4c0.9-0.4,1.1-1.7,0.2-2.2C90.2,26.9,89.5,27.5,89.4,28z"/>
	<path d="M86.4,26.6c-0.4,0.9,0.2,1.8,1.1,1.5c1-0.3,1.4-1.7,0.4-2.2C87.3,25.6,86.6,26.2,86.4,26.6z"/>
	<path d="M85.1,24.5c-0.7-0.3-1.4,0.2-1.6,0.7c-0.4,0.9,0.2,1.7,1.1,1.5C85.5,26.4,86,25,85.1,24.5z"/>
	<path d="M80.6,23.8c-0.5,0.8,0.1,1.7,1,1.5c1-0.3,1.5-1.6,0.6-2.2C81.6,22.7,80.9,23.3,80.6,23.8z"/>
	<path d="M76.8,20.1c-0.7-0.3-1.4,0.1-1.8,0.6c-0.5,0.8,0,1.7,1,1.5C77,22,77.6,20.7,76.8,20.1L76.8,20.1z"/>
	<path d="M74.1,18.6c-0.7-0.4-1.5,0.1-1.8,0.5c-0.5,0.8-0.1,1.6,0.8,1.5C74.2,20.5,74.9,19.2,74.1,18.6L74.1,18.6z"/>
	<path d="M70.8,23.7c1.1-0.2,1.7-1.5,0.9-2l-0.1-0.1c-0.7-0.4-1.5,0.1-1.8,0.6C69.3,23,69.8,23.9,70.8,23.7z"/>
	<path d="M68.9,20c-0.7-0.4-1.5,0.1-1.8,0.5c-0.6,0.8-0.1,1.7,0.9,1.6C69,21.9,69.7,20.6,68.9,20L68.9,20z"/>
	<path d="M71.9,3.7c-0.5-0.3-1.3,0-1.7,0.3c-0.7,0.5-0.7,1-0.1,1.2C71,5.3,72.4,4.2,71.9,3.7L71.9,3.7z"/>
	<path d="M65.6,8c-0.5-0.3-1.3,0-1.8,0.4c-0.7,0.5-0.7,1.2,0,1.3C64.8,9.8,66,8.7,65.6,8L65.6,8z"/>
	<path d="M73.6,4.9c-0.5-0.3-1.3,0.1-1.7,0.4c-0.6,0.5-0.6,1.1,0,1.2c0.9,0.1,2.2-0.9,1.8-1.4L73.6,4.9z"/>
	<path d="M62.1,10.8L62.1,10.8c-0.6-0.4-1.4,0-1.9,0.4c-0.7,0.6-0.5,1.4,0.2,1.4C61.5,12.7,62.6,11.4,62.1,10.8z"/>
	<path d="M59.1,13.5L59.1,13.5c-0.6-0.4-1.5,0-1.9,0.4c-0.6,0.7-0.5,1.5,0.3,1.5C58.5,15.4,59.7,14.1,59.1,13.5z"/>
	<path d="M61,14.9c-0.6-0.4-1.4,0.1-1.8,0.5c-0.7,0.7-0.4,1.5,0.5,1.5C60.7,16.8,61.7,15.5,61,14.9L61,14.9z"/>
	<path d="M63.7,16.7L63.7,16.7c-0.7-0.4-1.5,0-1.9,0.5c-0.7,0.7-0.3,1.6,0.6,1.5C63.5,18.6,64.3,17.3,63.7,16.7z"/>
	<path d="M93.9,25.9c-0.4,0.9,0.4,1.8,1.2,1.3c0.8-0.4,1-1.7,0.2-2.2C94.6,24.8,94.1,25.4,93.9,25.9z"/>
	<path d="M92.6,23.8c-0.7-0.2-1.3,0.3-1.5,0.8c-0.4,0.9,0.3,1.7,1.1,1.4C93.1,25.7,93.5,24.3,92.6,23.8z"/>
	<path d="M96.5,32c0.8-0.4,1-1.8,0.1-2.2c-0.7-0.3-1.3,0.3-1.4,0.8C94.9,31.6,95.7,32.4,96.5,32z"/>
	<path d="M98,26.2c-0.7-0.2-1.2,0.4-1.4,0.8c-0.3,1,0.5,1.8,1.3,1.3C98.7,27.9,98.9,26.6,98,26.2z"/>
	<path d="M89.9,22.6c-0.7-0.3-1.3,0.2-1.6,0.7c-0.4,0.9,0.2,1.7,1.1,1.4S90.8,23,89.9,22.6z"/>
	<path d="M85.6,21.9c-0.5,0.9,0.1,1.7,1,1.4c0.9-0.3,1.5-1.6,0.6-2.1C86.4,21,85.8,21.5,85.6,21.9z"/>
	<path d="M84.5,19.9c-0.7-0.3-1.4,0.2-1.6,0.6c-0.5,0.9,0.1,1.7,1,1.4C84.7,21.7,85.3,20.4,84.5,19.9z"/>
	<path d="M103.5,40.8c-0.8-0.2-1.3,0.4-1.4,1c-0.2,1.1,0.7,1.9,1.5,1.4S104.5,41.2,103.5,40.8z"/>
	<path d="M100.4,42c0.8-0.5,0.9-1.9-0.1-2.4c-0.8-0.3-1.3,0.4-1.5,0.9C98.6,41.6,99.5,42.5,100.4,42z"/>
	<path d="M97.2,40.7c0.8-0.5,1-1.9,0-2.4c-0.8-0.3-1.4,0.4-1.5,0.9C95.4,40.3,96.3,41.2,97.2,40.7z"/>
	<path d="M104.6,36.9c-0.7-0.2-1.2,0.5-1.3,1c-0.2,1.1,0.7,1.9,1.5,1.4C105.5,38.7,105.5,37.3,104.6,36.9z"/>
	<path d="M101.6,35.7c-0.8-0.2-1.3,0.4-1.4,1c-0.2,1,0.6,1.9,1.5,1.4C102.4,37.6,102.5,36.2,101.6,35.7z"/>
	<path d="M98.5,36.9c0.8-0.5,1-1.9,0-2.3c-0.7-0.3-1.3,0.4-1.5,0.9C96.8,36.5,97.6,37.3,98.5,36.9z"/>
	<path d="M90.6,35.6c-0.8-0.3-1.4,0.3-1.6,0.8c-0.4,1.1,0.5,1.9,1.4,1.5C91.3,37.5,91.6,36.1,90.6,35.6z"/>
	<path d="M85.8,35c-0.4,1,0.5,1.9,1.4,1.5s1.2-1.9,0.2-2.3C86.7,33.9,86,34.5,85.8,35z"/>
	<path d="M82.6,33.5c-0.4,1,0.4,1.9,1.4,1.5c0.9-0.4,1.2-1.8,0.3-2.3C83.5,32.4,82.9,33,82.6,33.5z"/>
	<path d="M79.4,32c-0.5,1,0.3,1.9,1.3,1.5c0.9-0.4,1.3-1.7,0.4-2.3C80.4,30.9,79.7,31.4,79.4,32z"/>
	<path d="M76.3,30.4c-0.5,0.9,0.3,1.9,1.3,1.5s1.4-1.7,0.5-2.2C77.3,29.3,76.6,29.9,76.3,30.4z"/>
	<path d="M92.1,34.2c0.8-0.4,1.1-1.8,0.2-2.3c-0.8-0.3-1.4,0.3-1.5,0.8C90.4,33.8,91.2,34.7,92.1,34.2z"/>
	<path d="M87.7,31.4c-0.4,1,0.4,1.9,1.3,1.4c0.9-0.4,1.2-1.8,0.3-2.3C88.5,30.3,87.8,30.9,87.7,31.4z"/>
	<path d="M93.7,39.3c0.9-0.5,1.1-1.9,0.1-2.4c-0.8-0.3-1.4,0.4-1.5,0.9C91.9,38.9,92.8,39.8,93.7,39.3z"/>
	<path d="M95.2,35.5c0.8-0.4,1-1.9,0.1-2.3c-0.8-0.3-1.3,0.4-1.5,0.9C93.4,35.1,94.3,36,95.2,35.5z"/>
	<path d="M84.6,29.9c-0.4,1,0.4,1.9,1.3,1.5s1.2-1.7,0.3-2.2C85.5,28.9,84.8,29.4,84.6,29.9z"/>
	<path d="M83.2,27.7c-0.7-0.3-1.4,0.2-1.7,0.7c-0.4,0.9,0.2,1.8,1.2,1.5C83.7,29.7,84.1,28.3,83.2,27.7z"/>
	<path d="M78.5,26.9c-0.5,0.9,0.2,1.8,1.1,1.6c1-0.3,1.5-1.7,0.6-2.2C79.5,25.9,78.8,26.4,78.5,26.9z"/>
	<path d="M101.2,51.5c0.9-0.5,0.9-2-0.1-2.5c-0.9-0.3-1.4,0.4-1.6,1C99.3,51.1,100.3,52,101.2,51.5z"/>
	<path d="M97.7,47.7c-0.8-0.2-1.4,0.4-1.6,1c-0.3,1.1,0.7,2,1.6,1.5S98.7,48.2,97.7,47.7z"/>
	<path d="M94.2,48.8c0.9-0.5,1.1-2,0-2.5c-0.9-0.3-1.5,0.4-1.6,0.9C92.3,48.4,93.3,49.3,94.2,48.8z"/>
	<path d="M102.3,44.9c-0.8-0.2-1.4,0.4-1.5,1c-0.2,1.1,0.7,2,1.6,1.5S103.3,45.4,102.3,44.9z"/>
	<path d="M99,43.7c-0.8-0.2-1.4,0.4-1.5,1c-0.3,1.1,0.7,2,1.6,1.5C99.9,45.7,100,44.2,99,43.7z"/>
	<path d="M95.7,44.8c0.9-0.5,1-2,0-2.4c-0.8-0.3-1.4,0.4-1.6,0.9C93.8,44.4,94.8,45.3,95.7,44.8z"/>
	<path d="M87.1,45.9c1-0.4,1.2-1.9,0.1-2.5c-0.9-0.3-1.5,0.3-1.7,0.9C85.1,45.3,86.1,46.3,87.1,45.9z"/>
	<path d="M83.6,44.3c1-0.4,1.2-1.9,0.2-2.4c-0.9-0.3-1.5,0.3-1.7,0.8C81.6,43.8,82.6,44.8,83.6,44.3z"/>
	<path d="M78.6,41.1c-0.5,1,0.5,2,1.5,1.6s1.3-1.8,0.3-2.4C79.5,39.9,78.8,40.6,78.6,41.1z"/>
	<path d="M75.1,39.4c-0.5,1,0.5,2,1.5,1.6s1.4-1.8,0.3-2.4C76.1,38.3,75.4,38.9,75.1,39.4z"/>
	<path d="M73.6,37c-0.9-0.4-1.6,0.2-1.8,0.8c-0.5,1,0.4,2,1.4,1.7C74.2,39,74.6,37.6,73.6,37z"/>
	<path d="M88.7,42c0.9-0.4,1.2-1.9,0.1-2.4c-0.8-0.3-1.5,0.3-1.7,0.8C86.9,41.5,87.8,42.4,88.7,42z"/>
	<path d="M85.4,40.5c0.9-0.4,1.2-1.8,0.2-2.4c-0.8-0.3-1.5,0.3-1.7,0.8C83.5,40,84.4,40.9,85.4,40.5z"/>
	<path d="M90.5,47.3c1-0.5,1.1-2,0.1-2.5c-0.9-0.3-1.5,0.4-1.7,0.9C88.6,46.9,89.5,47.8,90.5,47.3z"/>
	<path d="M92.1,43.4c0.9-0.5,1.1-1.9,0.1-2.4c-0.8-0.3-1.5,0.4-1.6,0.9C90.2,42.9,91.1,43.8,92.1,43.4z"/>
	<path d="M80.6,37.3c-0.4,1,0.5,2,1.4,1.6c1-0.4,1.3-1.9,0.3-2.4C81.5,36.2,80.8,36.8,80.6,37.3z"/>
	<path d="M77.2,35.7c-0.5,1,0.4,2,1.4,1.6s1.3-1.8,0.4-2.3C78.2,34.6,77.5,35.2,77.2,35.7z"/>
	<path d="M74,34.1c-0.5,1,0.3,2,1.4,1.6c1-0.4,1.4-1.8,0.4-2.3C75,33,74.3,33.6,74,34.1z"/>
	<path d="M98.5,57.2c-0.9-0.3-1.5,0.4-1.6,1c-0.3,1.1,0.8,2,1.7,1.5C99.5,59.2,99.6,57.7,98.5,57.2z"/>
	<path d="M94.9,58.4c1-0.5,1.1-2.1,0-2.6c-0.9-0.3-1.5,0.4-1.7,1C92.9,58,93.9,58.9,94.9,58.4z"/>
	<path d="M91.2,57c0.9-0.5,1.1-2,0-2.5c-0.9-0.3-1.6,0.4-1.7,0.9C89.2,56.5,90.2,57.5,91.2,57z"/>
	<path d="M99.8,53c-0.9-0.3-1.5,0.5-1.6,1c-0.3,1.1,0.8,2,1.7,1.5C100.8,55.1,100.9,53.5,99.8,53z"/>
	<path d="M96.3,51.7c-0.9-0.3-1.5,0.4-1.6,1c-0.3,1.1,0.7,2,1.7,1.5C97.3,53.8,97.4,52.2,96.3,51.7z"/>
	<path d="M92.7,52.9c0.9-0.5,1.1-2,0-2.5c-0.9-0.3-1.5,0.4-1.7,0.9C90.8,52.4,91.8,53.4,92.7,52.9z"/>
	<path d="M83.6,53.8c1-0.4,1.2-2,0.1-2.5c-0.9-0.3-1.6,0.3-1.8,0.9C81.6,53.3,82.6,54.3,83.6,53.8z"/>
	<path d="M79.9,52.2c1-0.4,1.3-1.9,0.2-2.5c-0.9-0.3-1.6,0.3-1.8,0.9C77.9,51.6,78.9,52.7,79.9,52.2z"/>
	<path d="M76.5,48c-0.9-0.4-1.6,0.3-1.9,0.8c-0.4,1.1,0.6,2.1,1.6,1.7C77.3,50.1,77.6,48.6,76.5,48z"/>
	<path d="M72.9,46.2c-0.9-0.4-1.6,0.2-1.8,0.8c-0.5,1.1,0.5,2.1,1.6,1.7C73.6,48.4,73.9,46.9,72.9,46.2z"/>
	<path d="M69,47c1-0.4,1.4-1.9,0.4-2.5c-0.9-0.4-1.6,0.2-1.9,0.7C67,46.3,67.9,47.3,69,47z"/>
	<path d="M85.3,49.8c1-0.4,1.2-2,0.1-2.5c-0.9-0.3-1.5,0.3-1.7,0.9C83.4,49.3,84.3,50.3,85.3,49.8z"/>
	<path d="M80.2,46.6c-0.4,1.1,0.6,2.1,1.6,1.6c1-0.4,1.3-1.9,0.2-2.5C81.1,45.4,80.4,46.1,80.2,46.6z"/>
	<path d="M87.3,55.4c1-0.4,1.2-2,0.1-2.5c-0.9-0.3-1.6,0.4-1.8,0.9C85.2,54.9,86.3,55.8,87.3,55.4z"/>
	<path d="M88.9,51.3c1-0.4,1.2-2,0.1-2.5c-0.9-0.3-1.6,0.4-1.7,0.9C86.9,50.8,87.9,51.8,88.9,51.3z"/>
	<path d="M78.2,46.6c1-0.4,1.3-1.9,0.3-2.5c-0.9-0.4-1.6,0.2-1.8,0.8C76.2,46,77.1,47,78.2,46.6z"/>
	<path d="M73.1,43.2c-0.5,1.1,0.4,2,1.5,1.7c1-0.4,1.4-1.8,0.3-2.5C74,42,73.3,42.6,73.1,43.2z"/>
	<path d="M69.6,41.4c-0.5,1,0.4,2.1,1.5,1.7c1-0.4,1.4-1.8,0.4-2.4C70.6,40.3,69.9,40.9,69.6,41.4z"/>
	<path d="M68.6,36c-0.5,1,0.3,2,1.4,1.7c1-0.3,1.4-1.8,0.5-2.4C69.6,34.9,68.8,35.5,68.6,36z"/>
	<path d="M65.9,34.5c-0.6,1,0.2,2,1.3,1.7c1-0.3,1.5-1.7,0.5-2.3C66.9,33.4,66.1,34,65.9,34.5z"/>
	<path d="M58.7,46.5c1-0.3,1.5-1.8,0.4-2.5c-0.9-0.4-1.6,0.2-1.9,0.7C56.7,45.7,57.6,46.9,58.7,46.5z"/>
	<path d="M50.3,53.6c-0.9-0.5-1.7,0.1-1.9,0.7c-0.5,1.2,0.6,2.3,1.7,1.9C51,55.7,51.3,54.2,50.3,53.6z"/>
	<path d="M48.1,57.7c-0.9-0.4-1.6,0.2-1.9,0.7c-0.5,1.2,0.6,2.4,1.7,1.9C48.9,59.9,49.2,58.4,48.1,57.7z"/>
	<path d="M42.4,59.9c-0.9-0.5-1.6,0.1-1.8,0.7c-0.4,1.3,0.6,2.5,1.7,1.9C43.2,62.2,43.4,60.7,42.4,59.9z"/>
	<path d="M36.9,63.9c0.9-0.4,1.1-2,0.2-2.7c-0.9-0.5-1.6,0.1-1.8,0.7C34.8,63.2,35.8,64.4,36.9,63.9z"/>
	<path d="M38.2,67.2c-0.9-0.5-1.6,0.2-1.7,0.8c-0.4,1.2,0.7,2.4,1.7,1.9C39,69.5,39.2,67.9,38.2,67.2z"/>
	<path d="M46.2,71.9c-1-0.4-1.6,0.2-1.8,0.8c-0.4,1.2,0.8,2.4,1.9,1.9C47.1,74.1,47.3,72.6,46.2,71.9z"/>
	<path d="M33.6,69.6c-0.8-0.5-1.5,0.1-1.6,0.7c-0.4,1.2,0.6,2.4,1.6,1.9C34.4,71.8,34.6,70.3,33.6,69.6z"/>
	<path d="M30.7,67.7c-0.8-0.5-1.4,0.2-1.6,0.7c-0.3,1.2,0.7,2.4,1.6,1.9C31.5,69.9,31.6,68.4,30.7,67.7z"/>
	<path d="M72.7,31.7c-0.8-0.4-1.6,0.2-1.8,0.7c-0.5,1,0.3,2,1.3,1.6C73.2,33.7,73.7,32.3,72.7,31.7z"/>
	<path d="M65.9,42.7c-0.9-0.4-1.6,0.2-1.9,0.7c-0.5,1.1,0.4,2.1,1.5,1.8C66.6,44.8,67,43.3,65.9,42.7z"/>
	<path d="M68.1,38.9c-0.8-0.4-1.6,0.2-1.9,0.7c-0.5,1,0.4,2,1.4,1.7C68.8,41,69.2,39.6,68.1,38.9z"/>
	<path d="M95.9,67.6c1-0.5,1.1-2.1-0.1-2.6c-0.9-0.3-1.6,0.4-1.7,1C93.8,67.2,94.8,68.2,95.9,67.6z"/>
	<path d="M92.1,66.2c0.9-0.5,1-2.1-0.1-2.5c-0.9-0.3-1.6,0.4-1.8,1C89.9,65.8,91.1,66.8,92.1,66.2z"/>
	<path d="M88.3,64.7c0.9-0.6,1-2-0.1-2.5c-1-0.3-1.7,0.4-1.8,1C86,64.3,87.3,65.3,88.3,64.7z"/>
	<path d="M97.3,60.9c-0.9-0.3-1.6,0.4-1.7,1c-0.3,1.1,0.8,2.1,1.8,1.5C98.3,62.9,98.4,61.3,97.3,60.9z"/>
	<path d="M93.6,62c1-0.5,1.1-2.1,0-2.6c-0.9-0.3-1.6,0.4-1.7,1C91.5,61.6,92.6,62.5,93.6,62z"/>
	<path d="M89.8,60.6c1-0.5,1.1-2,0-2.6c-0.9-0.3-1.6,0.4-1.8,1C87.7,60.1,88.8,61.1,89.8,60.6z"/>
	<path d="M80.4,61.4c0.9-0.5,1.1-2,0-2.5c-1-0.3-1.7,0.3-1.8,0.9C78.1,61,79.4,62,80.4,61.4z"/>
	<path d="M76.6,59.7c0.9-0.5,1.1-2,0-2.5c-1-0.4-1.7,0.3-1.9,0.8C74.4,59.3,75.5,60.3,76.6,59.7z"/>
	<path d="M72.8,58c1-0.5,1.1-1.9,0.1-2.5c-0.9-0.4-1.7,0.3-1.9,0.8C70.5,57.5,71.7,58.5,72.8,58z"/>
	<path d="M60.1,66.4c-0.9-0.5-1.5,0.1-1.8,0.7c-0.5,1.2,0.5,2.3,1.6,1.8C60.8,68.5,61.1,67.1,60.1,66.4z"/>
	<path d="M53.6,75.5c-0.8-0.4-1.4,0.1-1.7,0.6h2.2C54,75.9,53.8,75.7,53.6,75.5z"/>
	<path d="M82.2,57.3c0.9-0.5,1.1-2,0-2.5c-0.9-0.4-1.6,0.3-1.8,0.9C80,56.9,81.1,57.9,82.2,57.3z"/>
	<path d="M78.3,55.7c1-0.4,1.3-2,0.2-2.5c-0.9-0.4-1.6,0.3-1.9,0.9C76.2,55.1,77.3,56.2,78.3,55.7z"/>
	<path d="M84.2,63c0.9-0.5,1-2-0.1-2.5c-1-0.4-1.6,0.3-1.8,0.9C82,62.6,83.2,63.6,84.2,63z"/>
	<path d="M85.8,59c1-0.5,1.2-2,0.1-2.5c-0.9-0.3-1.6,0.3-1.8,0.9C83.7,58.4,84.8,59.4,85.8,59z"/>
	<path d="M74.7,54c1-0.5,1.1-1.9,0.1-2.5c-0.9-0.4-1.7,0.2-1.9,0.8C72.5,53.4,73.6,54.5,74.7,54z"/>
	<path d="M70.8,52.2c1-0.4,1.4-1.9,0.3-2.5c-0.9-0.4-1.6,0.2-1.9,0.8C68.8,51.5,69.7,52.6,70.8,52.2z"/>
	<path d="M67.5,47.8c-0.9-0.4-1.6,0.2-1.9,0.7c-0.5,1.1,0.5,2.2,1.6,1.8C68.2,50,68.6,48.5,67.5,47.8z"/>
	<path d="M8.4,75.8c0,0.1,0,0.2,0,0.3h1.2c-0.1-0.4-0.2-0.9-0.5-1.1C8.7,74.5,8.5,75.2,8.4,75.8z"/>
	<path d="M4.9,76.1h0.8c-0.1-0.3-0.2-0.5-0.3-0.7C5.1,75,4.9,75.6,4.9,76.1z"/>
	<path d="M1.4,74.7c0,0.1,0,0.3,0,0.8c0,0.2,0.1,0.4,0.1,0.6H2c-0.1-0.6-0.2-1.2-0.4-1.5C1.6,74.5,1.5,74.3,1.4,74.7z"/>
	<path d="M0.4,68.9c0,0.2-0.1,0.5,0,0.9c0,0.9,0.2,1.9,0.4,1.7c0.1-0.2,0.1-2-0.2-2.6C0.5,68.8,0.4,68.7,0.4,68.9z"/>
	<path d="M0.1,72.1c-0.1,0.1-0.1,0.4,0,1c0.1,0.9,0.3,1.8,0.4,1.7C0.6,74.6,0.4,72.7,0.1,72.1L0.1,72.1z"/>
	<path d="M92.6,73.7c-1-0.3-1.7,0.4-1.8,1c-0.2,0.6,0,1.1,0.3,1.4h1.8C93.7,75.4,93.7,74.1,92.6,73.7z"/>
	<path d="M88.7,72.2c-1-0.3-1.7,0.4-1.8,1c-0.4,1.2,0.9,2.2,1.9,1.6S89.9,72.7,88.7,72.2z"/>
	<path d="M84.8,70.7c-1-0.3-1.7,0.4-1.9,1c-0.4,1.2,0.9,2.2,1.9,1.6S85.9,71.2,84.8,70.7z"/>
	<path d="M94.2,69.5c-1-0.3-1.6,0.4-1.8,1c-0.3,1.2,0.8,2.1,1.8,1.6C95.2,71.6,95.4,70,94.2,69.5z"/>
	<path d="M90.4,68c-1-0.3-1.6,0.4-1.8,1c-0.4,1.2,0.9,2.2,1.9,1.5C91.4,70,91.5,68.5,90.4,68z"/>
	<path d="M86.5,66.5c-1-0.3-1.7,0.4-1.8,0.9c-0.4,1.2,0.8,2.2,1.9,1.6C87.5,68.5,87.6,67,86.5,66.5z"/>
	<path d="M76.7,67.3c-1-0.3-1.7,0.3-1.9,0.9c-0.4,1.2,0.8,2.3,1.9,1.7C77.7,69.4,77.8,67.9,76.7,67.3z"/>
	<path d="M80.6,69c-1-0.4-1.7,0.3-1.9,0.9c-0.4,1.2,0.9,2.2,1.9,1.6C81.6,71,81.7,69.5,80.6,69z"/>
	<path d="M82.4,67.4c0.9-0.5,1.1-2-0.1-2.5c-1-0.3-1.7,0.3-1.8,0.9C80.1,67,81.3,68,82.4,67.4z"/>
	<path d="M83.1,74.9c-1-0.3-1.7,0.4-1.9,1c0,0.1,0,0.2,0,0.3h2.7C83.9,75.6,83.6,75.1,83.1,74.9z"/>
	<path d="M73.1,75.6c-0.8-0.3-1.3,0-1.7,0.5h2.2C73.5,75.9,73.3,75.7,73.1,75.6z"/>
	<path d="M69.1,73.9c-1-0.4-1.7,0.3-1.9,0.9c-0.2,0.5,0,1,0.3,1.3h2.1C70.2,75.4,70.1,74.4,69.1,73.9z"/>
	<path d="M74.9,71.5c-1-0.4-1.7,0.3-1.9,0.9c-0.4,1.2,0.8,2.3,1.9,1.7C75.9,73.6,76,72,74.9,71.5z"/>
	<path d="M71,69.7c-1-0.4-1.7,0.3-1.9,0.9c-0.4,1.2,0.8,2.3,1.9,1.7C72,71.8,72.1,70.3,71,69.7z"/>
	<path d="M78.8,73.2c-1-0.4-1.7,0.3-1.9,0.9c-0.3,1.2,0.9,2.2,2,1.6C79.9,75.2,80,73.7,78.8,73.2z"/>
	<path d="M62,76.1h1.8c-0.1-0.1-0.2-0.2-0.3-0.2C62.8,75.6,62.3,75.8,62,76.1z"/>
	<path d="M78.3,19.1c1-0.1,1.7-1.4,1-2h-0.1c-0.7-0.3-1.4,0.1-1.7,0.6C77,18.4,77.4,19.2,78.3,19.1z"/>
	<path d="M99.3,9.3c-0.3,0.7,0,1.3,0.6,1.1c0.7-0.2,1.1-1.4,0.5-1.7C100,8.4,99.5,8.9,99.3,9.3z"/>
	<path d="M98.6,7.7c-0.5-0.2-1,0.2-1.2,0.6c-0.4,0.6,0,1.2,0.6,1C98.7,9.2,99.2,8.1,98.6,7.7z"/>
	<path d="M96.8,6.9c-0.5-0.2-1,0.2-1.2,0.6c-0.4,0.6-0.2,1.2,0.4,1.1C96.7,8.4,97.4,7.3,96.8,6.9L96.8,6.9z"/>
	<path d="M95,6c-0.5-0.2-1.1,0.2-1.3,0.5c-0.4,0.6-0.2,1.2,0.4,1.1C94.8,7.5,95.5,6.3,95,6L95,6z"/>
	<path d="M93.2,5c-0.5-0.2-1.1,0.2-1.4,0.5c-0.5,0.5-0.3,1.1,0.3,1C93,6.5,93.7,5.4,93.2,5L93.2,5z"/>
	<path d="M103.2,11c-0.2,0.8,0.2,1.4,0.8,1c0.6-0.3,0.8-1.5,0.2-1.8C103.7,10.1,103.4,10.6,103.2,11z"/>
	<path d="M102.3,9.4c-0.5-0.2-0.9,0.3-1,0.7c-0.3,0.7,0.1,1.3,0.7,1.1C102.6,11,103,9.8,102.3,9.4z"/>
	<path d="M142.5,19.5c-0.1,0.2,0.4,0.9,0.7,1.4c0.5,0.7,0.9,1.1,0.9,0.8C144.1,21.4,142.8,19.4,142.5,19.5z"/>
	<path d="M143.7,20.5c0.5,0.6,0.8,1,0.8,0.8c0.1-0.2-1.3-2.4-1.6-2.3C142.9,19.2,143.4,20,143.7,20.5z"/>
	<path d="M145,23.2c-0.1,0.2,0.3,1,0.6,1.5c0.5,0.7,0.8,1.1,0.9,0.9C146.5,25.2,145.3,23.1,145,23.2z"/>
	<path d="M141.9,19.9c-0.1,0.1,0.3,0.9,0.6,1.4c0.5,0.7,0.9,1.1,0.9,0.9C143.6,21.9,142.3,19.8,141.9,19.9z"/>
	<path d="M144.9,25.1c0.4,0.7,0.8,1.1,0.9,0.9c0.1-0.4-1-2.5-1.4-2.3C144.2,23.8,144.6,24.6,144.9,25.1z"/>
	<path d="M142.7,22.6c0.1-0.3-1.1-2.4-1.5-2.3c-0.2,0.1,0.2,0.9,0.6,1.4C142.2,22.4,142.7,22.8,142.7,22.6z"/>
	<path d="M143.5,24.1c-0.2,0.1,0.2,0.9,0.5,1.4c0.4,0.7,0.8,1.1,0.9,0.9C145.1,26.1,144,23.9,143.5,24.1z"/>
	<path d="M140.3,20.6c-0.2,0.1,0.2,0.9,0.5,1.4c0.5,0.7,1,1.2,1,0.9C141.9,22.4,140.8,20.6,140.3,20.6z"/>
	<path d="M142.6,24.4c-0.2,0.1,0.1,0.9,0.4,1.5c0.4,0.7,0.9,1.2,1,0.9C144.1,26.3,143.1,24.3,142.6,24.4z"/>
	<path d="M139.4,20.8c-0.2,0.1,0.1,0.9,0.4,1.4c0.4,0.7,0.9,1.2,1,0.9C141,22.7,139.9,20.8,139.4,20.8z"/>
	<path d="M142.9,27c0.2-0.4-0.8-2.4-1.3-2.4c-0.2,0.1,0.1,0.9,0.3,1.4C142.3,26.8,142.8,27.3,142.9,27z"/>
	<path d="M145.5,22.7L145.5,22.7c-0.1,0.2,0.3,1,0.6,1.5c0.4,0.6,0.8,1,0.8,0.8C147.1,24.7,145.8,22.6,145.5,22.7z"/>
	<path d="M158.7,67.8c-0.2,0.3-0.3,1.2-0.3,1.8c0,0.7,0.1,1.1,0.2,1C158.9,70.2,159.1,67.7,158.7,67.8L158.7,67.8z"/>
	<path d="M158.6,72.1L158.6,72.1c-0.3,0.3-0.4,1.3-0.4,1.8c-0.1,0.7,0,1.1,0.1,1C158.6,74.5,158.9,72.1,158.6,72.1z"/>
	<path d="M155.5,69.9L155.5,69.9c-0.4,0.2-0.6,1.2-0.6,1.7c0,0.8,0.2,1.2,0.5,1C155.9,72.1,156,69.8,155.5,69.9z"/>
	<path d="M155.2,74.3L155.2,74.3c-0.4,0.2-0.6,1.1-0.7,1.7c0,0,0,0,0,0.1h0.8C155.6,75.3,155.6,74.2,155.2,74.3z"/>
	<path d="M156.7,69.3L156.7,69.3c-0.4,0.3-0.5,1.2-0.5,1.8c0,0.7,0.2,1.2,0.4,1C157.1,71.7,157.2,69.4,156.7,69.3z"/>
	<path d="M156.5,73.7L156.5,73.7c-0.4,0.3-0.5,1.2-0.6,1.8c0,0.2,0,0.4,0,0.6h0.5C156.8,75.3,156.9,73.8,156.5,73.7z"/>
	<path d="M151.8,75.3L151.8,75.3c-0.3,0.1-0.5,0.4-0.6,0.8h1C152.2,75.7,152.1,75.3,151.8,75.3z"/>
	<path d="M153.6,75h-0.1c-0.3,0.1-0.5,0.6-0.6,1.1h1.1C153.9,75.5,153.8,75,153.6,75z"/>
	<path d="M152.1,70.9L152.1,70.9c-0.5,0.1-0.8,1.1-0.8,1.6c0,0.9,0.3,1.4,0.7,1.1C152.7,73,152.8,70.9,152.1,70.9z"/>
	<path d="M153.8,70.5L153.8,70.5c-0.5,0.2-0.7,1.1-0.7,1.7c0,0.9,0.3,1.4,0.6,1C154.3,72.6,154.4,70.5,153.8,70.5z"/>
	<path d="M153.8,66L153.8,66c-0.4,0.2-0.6,1.1-0.6,1.7c0,0.9,0.4,1.4,0.7,1C154.5,68,154.4,65.9,153.8,66z"/>
	<path d="M158.6,62c0.3-0.3,0.2-2.7-0.2-2.8v0.1c-0.2,0.2-0.2,1.2-0.1,1.8C158.3,61.8,158.4,62.2,158.6,62z"/>
	<path d="M158.7,63.6L158.7,63.6c-0.2,0.3-0.3,1.2-0.3,1.8c0,0.7,0.1,1.1,0.3,1C159,66,159,63.6,158.7,63.6z"/>
	<path d="M157.6,53.2c0.2-0.5-0.2-2.8-0.5-2.7l0,0c-0.1,0.3-0.1,1.2,0.1,1.7C157.2,53,157.5,53.5,157.6,53.2z"/>
	<path d="M157.9,54.8L157.9,54.8c-0.2,0.3-0.2,1.2-0.1,1.8c0.1,0.7,0.3,1.1,0.4,0.9C158.5,57.3,158.2,54.8,157.9,54.8z"/>
	<path d="M117.3,18.1c-0.5-0.1-0.6,0.6-0.6,1.1c0.1,0.9,0.7,1.5,1.1,1S118,18.3,117.3,18.1z"/>
	<path d="M117.4,21.6c-0.5-0.1-0.7,0.6-0.7,1.1c0,0.9,0.7,1.6,1.1,1.1C118.4,23.3,118.2,21.9,117.4,21.6z"/>
	<path d="M115.3,17.5c-0.5-0.1-0.7,0.5-0.6,1c0,0.9,0.6,1.5,1.1,1.1C116.2,19.1,116,17.8,115.3,17.5z"/>
	<path d="M115.7,23.1c0.5-0.5,0.3-1.9-0.4-2.2c-0.5-0.1-0.7,0.5-0.7,1C114.6,22.9,115.3,23.6,115.7,23.1z"/>
	<path d="M113.7,18.9c0.5-0.4,0.3-1.8-0.3-2c-0.5-0.1-0.7,0.5-0.7,1C112.6,18.7,113.2,19.3,113.7,18.9z"/>
	<path d="M113.5,22.4c0.5-0.5,0.4-1.8-0.3-2.1c-0.6-0.1-0.8,0.5-0.8,1C112.3,22.2,113,22.8,113.5,22.4z"/>
	<path d="M111.4,16.2c-0.5-0.1-0.8,0.4-0.8,0.9c-0.1,0.9,0.5,1.5,1,1.1C112.1,17.8,112,16.5,111.4,16.2z"/>
	<path d="M110.9,19.6c-0.5-0.1-0.8,0.5-0.9,0.9c-0.1,0.9,0.5,1.6,1.1,1.2C111.7,21.2,111.7,19.9,110.9,19.6z"/>
</g>
</svg>
